<?xml version="1.0" encoding="UTF-8" standalone="no"?>
<!-- Created with Inkscape (http://www.inkscape.org/) -->

<svg
   width="90.728699mm"
   height="102.40861mm"
   viewBox="0 0 90.728699 102.40861"
   version="1.1"
   id="svg1"
   xml:space="preserve"
   xmlns="http://www.w3.org/2000/svg"
   xmlns:svg="http://www.w3.org/2000/svg"><defs
     id="defs1" /><g
     id="layer1"
     transform="translate(-1323.6795,-136.42904)"><g
       id="g60"
       transform="matrix(2.7765915,0,0,2.7765915,-2007.3319,-382.45129)"><path
         style="fill:#ffffff;fill-opacity:1;stroke:#000000;stroke-width:0.731305"
         d="m 1209.0112,220.57186 v -2.84578 c 0,0 -5.7251,-3.81928 -7.8559,-7.45348 -2.1304,-3.63418 -0.7606,-10.13359 0.4802,-12.20901 1.2404,-2.07543 4.8668,-1.8927 5.9494,-0.33074 1.0827,1.56196 0.7386,6.45546 0.7386,6.45546 0,0 3.8563,0.57201 5.6631,-0.78586 1.8068,-1.35789 2.3978,-3.71505 2.4837,-5.20075 0.086,-1.48572 -0.5906,-2.845 -2.3422,-4.05201 -1.7515,-1.20697 -3.8264,-1.36574 -4.5675,-2.27114 -0.741,-0.90543 0,-3.29335 2.1278,-4.18379 2.1371,-0.89045 7.1081,-0.79241 10.4617,3.44119 0,0 7.6159,-1.37533 7.5631,6.44692 0,0 2.3828,-1.22856 2.052,6.58872 0,0 2.1376,9.33419 -6.8335,14.27363 v 2.46365 c 0,0 -7.5832,5.86958 -15.9205,-0.33701 z"
         id="path38" /><path
         style="fill:none;fill-opacity:1;stroke:#000000;stroke-width:0.731305"
         d="m 1222.1501,191.13595 c 0,0 3.2214,3.51682 2.2681,12.30807"
         id="path39" /><path
         style="fill:none;fill-opacity:1;stroke:#000000;stroke-width:0.731305"
         d="m 1229.7132,197.58287 c 0,0 0.5113,3.90635 -1.4622,6.70655"
         id="path40" /><path
         style="fill:none;fill-opacity:1;stroke:#000000;stroke-width:0.731305"
         d="m 1231.7652,204.17159 c 0,0 -0.507,1.24211 -1.9064,2.47341"
         id="path41" /><path
         style="fill:none;fill-opacity:1;stroke:#000000;stroke-width:0.731305"
         d="m 1209.0112,217.72608 c 0,0 3.788,1.73336 7.6952,2.36418"
         id="path42" /><path
         style="fill:none;fill-opacity:1;stroke:#000000;stroke-width:0.731305"
         d="m 1224.9317,218.44522 c 0,0 -0.9428,0.4772 -1.7493,0.4772"
         id="path43" /></g></g></svg>
