<?xml version="1.0" encoding="UTF-8" standalone="no"?>
<!-- Created with Inkscape (http://www.inkscape.org/) -->

<svg
   width="112.93077mm"
   height="112.93156mm"
   viewBox="0 0 112.93077 112.93156"
   version="1.1"
   id="svg1"
   xml:space="preserve"
   xmlns="http://www.w3.org/2000/svg"
   xmlns:svg="http://www.w3.org/2000/svg"><defs
     id="defs1" /><g
     id="layer1"
     transform="translate(-1052.8142,-131.50196)"><g
       id="g32"
       transform="translate(586.18679,-84.630848)"><path
         style="fill:#cdccc8;fill-opacity:1;stroke-width:0.264583"
         d="m 345.3884,116.65283 5.47894,23.1081 7.88546,32.3752 39.93226,47.37814 45.61613,-38.93634 13.75632,-51.81124 7.63979,-44.958536 -67.716,-10.357567 -58.00646,12.364053 z"
         id="path10" /><path
         style="fill:#f7f7f7"
         d="m 396.1334,218.40907 c -5.38672,-1.46309 -12.1016,-6.6435 -19.91963,-15.36764 -5.79304,-6.46447 -11.75726,-15.74706 -15.66062,-24.37389 -4.93815,-10.91381 -7.12025,-21.98761 -6.76428,-34.32751 0.16624,-5.76265 0.52252,-8.68208 1.79646,-14.72047 1.93828,-9.18728 5.04218,-15.2575 10.68879,-20.90379 4.09258,-4.09235 7.17728,-5.8185 10.96546,-6.13609 4.91863,-0.41236 11.26434,2.62031 15.50789,7.41134 1.87935,2.12181 4.56639,6.33342 5.82839,9.13526 0.88768,1.97082 1.18379,2.42123 1.32627,2.01738 4.18915,-11.87405 12.21751,-18.90847 21.58017,-18.90847 6.26059,0 12.02431,3.04115 18.62495,9.82723 6.17903,6.35261 9.22387,12.07619 10.94648,20.57683 1.15497,5.69947 1.49949,10.90585 1.126,17.01584 -0.68643,11.22944 -2.99734,20.04773 -7.75008,29.57384 -4.45096,8.92123 -8.70743,14.8354 -16.06764,22.32521 -8.36438,8.51167 -16.30078,14.13126 -23.25324,16.46513 -2.82336,0.94777 -6.35618,1.1012 -8.97537,0.3898 z m 9.91634,-17.87838 c 4.23375,-0.98561 9.49659,-3.54886 13.56544,-6.60701 8.44854,-6.34992 15.38985,-16.90206 17.69334,-26.89733 l 0.58658,-2.54529 1.05119,0.26682 c 0.734,0.1863 1.3489,0.17762 2.03782,-0.0288 1.27758,-0.38277 3.11162,-1.95829 3.27509,-2.81345 0.16291,-0.85222 -0.15371,-0.86452 -0.53808,-0.0209 -0.53645,1.17737 -1.43799,1.54045 -3.53131,1.42216 -1.76057,-0.0995 -1.94146,-0.1674 -2.62432,-0.98535 -0.70608,-0.84578 -1.30722,-0.91933 -1.30722,-0.15996 0,0.63321 -3.07088,4.98489 -5.10769,7.23801 -4.62648,5.11781 -11.32839,9.16887 -18.17565,10.98651 -4.33756,1.15143 -6.50981,1.35738 -14.1552,1.34204 l -7.14375,-0.0143 -3.70417,-0.96535 c -6.50696,-1.6958 -11.77554,-4.80255 -16.14204,-9.51857 -1.68656,-1.82155 -5.2661,-6.89814 -5.97316,-8.47127 -0.38825,-0.86382 -0.64481,-0.89466 -1.69324,-0.20359 -1.8074,1.19134 -4.31053,0.91826 -6.16967,-0.67309 -1.28656,-1.10125 -1.36577,-0.99457 -0.43756,0.5893 1.04651,1.78572 3.77872,2.88509 5.51539,2.21925 0.42036,-0.16116 0.81307,-0.24426 0.87268,-0.18464 0.0596,0.0596 0.38866,1.34286 0.73122,2.85167 0.78515,3.45825 1.48959,5.31432 3.65203,9.62245 6.48011,12.91004 16.52757,21.90051 26.61201,23.81243 2.61968,0.49667 8.44172,0.35953 11.11027,-0.26171 z m -3.51838,-26.68949 c 1.01454,-0.48941 2.85665,-1.57618 4.09357,-2.41506 l 2.24896,-1.52524 1.88063,0.0467 c 2.40188,0.0597 3.76524,-0.47487 5.11116,-2.00392 3.17065,-3.60204 1.28913,-9.99417 -3.32266,-11.28817 -0.87295,-0.24493 -2.00408,-0.44534 -2.51363,-0.44534 h -0.92645 l -0.44075,-1.91823 c -0.76067,-3.31054 -0.96465,-5.2324 -1.00393,-9.45885 -0.0358,-3.84872 0.006,-4.2205 0.67565,-6.04263 0.39256,-1.06787 0.64594,-2.0094 0.56306,-2.09228 -0.23821,-0.23821 -1.62172,3.06226 -2.09965,5.0089 -0.78763,3.20808 -0.95117,5.17739 -0.68336,8.22918 0.2875,3.27621 1.34187,8.29076 1.97315,9.38419 l 0.41925,0.72618 -0.14035,-0.85989 -0.14035,-0.8599 h 1.72632 c 1.89364,0 2.78331,0.34586 3.85264,1.49773 1.64015,1.76674 2.02529,4.06963 0.98899,5.91348 -0.83097,1.47852 -2.56103,2.10251 -3.1097,1.1216 -0.47898,-0.85632 -2.96691,-0.67893 -5.44362,0.38812 -2.35593,1.01501 -4.1005,1.36952 -7.74352,1.5735 -2.73264,0.153 -4.05041,-0.1466 -6.89464,-1.56756 -1.56723,-0.78297 -1.72462,-0.8111 -2.77813,-0.49644 -1.35999,0.40619 -2.80949,0.38799 -3.32778,-0.0418 -1.11562,-0.92512 -1.4112,-3.5823 -0.59467,-5.34593 0.90385,-1.95223 2.52416,-3.04271 4.52105,-3.04271 1.56309,0 1.85457,0.2001 1.8719,1.28508 0.0207,1.29568 1.5785,-3.65881 2.24278,-7.13307 1.24377,-6.50504 0.13256,-14.11674 -2.50709,-17.17328 l -0.56906,-0.65894 0.51697,1.0663 c 1.20912,2.49391 1.47134,4.02389 1.47238,8.59099 10e-4,4.42117 -0.37478,7.32019 -1.36114,10.50075 l -0.42568,1.37262 -1.7428,0.1824 c -2.91462,0.30502 -4.44908,1.40589 -5.69228,4.08382 -0.80504,1.73411 -0.92683,4.45493 -0.26982,6.02777 0.9058,2.16841 2.93862,3.48076 5.40993,3.49255 1.1774,0.006 1.68249,0.16066 2.64583,0.81218 2.05342,1.38876 4.84717,2.97903 6.08541,3.46396 1.86466,0.73026 3.31105,0.62406 5.43143,-0.39878 z m 5.63291,-5.78243 c 0.1411,-0.1411 0.47755,-0.2097 0.74766,-0.15244 0.36376,0.0771 0.29723,0.14363 -0.25654,0.25654 -0.48281,0.0984 -0.65679,0.0616 -0.49112,-0.1041 z m -19.72944,-0.13185 c 0.40018,-0.0606 1.05503,-0.0606 1.45521,0 0.40018,0.0606 0.0728,0.11023 -0.7276,0.11023 -0.80037,0 -1.12779,-0.0496 -0.72761,-0.11023 z m 21.31549,0.009 c 0.191,-0.0764 0.4192,-0.067 0.50712,0.0209 0.0879,0.0879 -0.0684,0.15045 -0.34726,0.13897 -0.30823,-0.0127 -0.37092,-0.0754 -0.15986,-0.15986 z m 30.28667,-6.16926 c 0.21537,0 0.21411,-0.0817 -0.005,-0.30049 -0.22427,-0.22426 -0.42226,-0.17768 -0.78052,0.18364 -0.46368,0.46762 -0.46352,0.47786 0.005,0.30049 0.26656,-0.101 0.6178,-0.18364 0.78052,-0.18364 z m -51.6683,-10.94555 c 0,-5.4072 -1.42448,-10.17788 -4.35334,-14.57969 -1.659,-2.49331 -3.24462,-3.97994 -5.42153,-5.08303 -1.269,-0.64304 -1.77734,-0.74485 -3.71888,-0.74485 -2.83246,0 -3.76937,0.42638 -6.10291,2.77739 -1.92845,1.94289 -2.88258,3.87158 -3.4567,6.98742 -0.39495,2.1435 -0.84249,2.5901 -2.75447,2.74866 -1.6656,0.13812 -3.38028,-0.39904 -4.62971,-1.45036 -0.7517,-0.63252 -0.7833,-0.63723 -0.7833,-0.11673 0,0.69119 0.82476,1.4576 2.42871,2.25688 l 1.26508,0.63042 -0.8916,0.16727 c -1.24865,0.23424 -3.90292,1.60344 -4.65003,2.3987 -0.71601,0.76216 -0.47515,0.83573 0.88099,0.2691 1.79382,-0.7495 5.2732,-0.39989 7.50476,0.7541 1.42495,0.73687 3.38981,2.74092 4.03236,4.1128 0.68787,1.46862 1.05939,1.6291 1.91849,0.82873 0.86171,-0.8028 4.37006,-2.16202 6.38586,-2.47404 3.69083,-0.57128 8.89937,0.66742 11.28788,2.6845 0.3638,0.30723 0.75076,0.56256 0.8599,0.5674 0.10914,0.005 0.19844,-1.22576 0.19844,-2.73467 z m 26.39052,1.32501 c 3.45138,-1.5428 4.92938,-1.86823 8.53447,-1.87917 3.53286,-0.0107 5.03558,0.38772 7.55907,2.00427 0.88327,0.56583 1.74447,1.02878 1.91378,1.02878 0.1693,0 0.5956,-0.56791 0.94733,-1.26201 1.44927,-2.86001 5.25634,-5.31437 8.61622,-5.55477 1.546,-0.11062 2.00553,-0.0293 3.41887,0.60497 0.89805,0.40301 1.69301,0.67255 1.7666,0.59897 0.0736,-0.0736 -0.33964,-0.56149 -0.91826,-1.08424 -0.74775,-0.67555 -1.70638,-1.15447 -3.31428,-1.65579 -1.24424,-0.38793 -2.26224,-0.78823 -2.26224,-0.88956 0,-0.10132 0.52982,-0.5812 1.17737,-1.0664 1.13331,-0.84915 1.70447,-1.59742 1.21933,-1.59742 -0.12789,0 -0.98736,0.35709 -1.90993,0.79354 -1.75821,0.83177 -3.40634,1.01955 -4.51499,0.51442 -0.49346,-0.22484 -0.70554,-0.68895 -1.08375,-2.37163 -0.94558,-4.207 -3.31249,-7.54898 -6.48495,-9.1565 -1.32146,-0.66959 -1.78334,-0.76004 -3.88121,-0.76004 -2.05216,0 -2.58236,0.0988 -3.83646,0.71499 -3.48815,1.71385 -7.41825,7.0639 -9.25183,12.59452 -0.85917,2.59153 -1.20431,7.4577 -0.65579,9.24622 0.13851,0.45161 0.0601,0.47341 2.96065,-0.82315 z m 2.97822,-28.86262 c 5.95848,-4.37037 12.77409,-5.69007 17.71685,-3.43049 3.03501,1.38746 5.85985,4.24233 7.30782,7.38553 0.40454,0.87815 0.6244,1.14501 0.65396,0.79375 0.17324,-2.05876 -1.01702,-5.69503 -2.67614,-8.17561 -2.19419,-3.28059 -4.79525,-5.18318 -8.35279,-6.1098 -1.79102,-0.46651 -5.93374,-0.52335 -8.18496,-0.11232 -3.09755,0.56556 -6.53207,2.27319 -9.08673,4.51788 -1.40529,1.23478 -4.67228,5.25709 -5.24447,6.45697 l -0.41084,0.86156 1.29081,1.46408 1.29082,1.46408 1.98794,-1.92711 c 1.09337,-1.05991 2.76185,-2.49474 3.70773,-3.18852 z m -58.19883,3.27478 c 1.14508,-2.2684 4.14221,-5.23228 6.34786,-6.27744 2.08623,-0.98858 3.61272,-1.36374 5.54889,-1.36374 4.38532,0 10.18087,2.8744 14.63829,7.26009 l 2.06679,2.03353 0.89812,-1.01525 c 0.49397,-0.5584 0.96792,-1.21685 1.05323,-1.46324 0.21285,-0.61479 -0.61046,-2.13898 -2.53512,-4.69319 -1.8997,-2.5211 -4.09303,-4.38177 -6.86089,-5.82033 -2.63646,-1.37026 -4.78811,-1.89485 -7.77194,-1.89485 -2.97249,0 -5.99678,0.86959 -7.89496,2.27006 -2.66148,1.96364 -4.96781,5.83904 -5.98519,10.05712 -0.74823,3.10222 -0.67805,3.23087 0.49492,0.90724 z m -8.89557,31.38043 c -4.39515,-2.63474 -5.8911,-14.32937 -2.421,-18.92621 0.65785,-0.87147 2.28254,-1.84903 3.07586,-1.85073 0.61285,-10e-4 0.62719,0.0455 0.46551,1.52 -0.47121,4.29744 -0.48903,9.61426 -0.0485,14.48442 0.25001,2.76406 0.51017,5.11555 0.57814,5.22552 0.25301,0.40939 -0.60381,0.17415 -1.64998,-0.453 z m 102.92588,-0.0746 c 1.00798,-4.73876 1.39671,-11.43416 0.9332,-16.07344 -0.45727,-4.57693 -0.45644,-4.73346 0.0257,-4.8306 0.61706,-0.12432 2.12296,0.99874 2.9343,2.18832 2.2373,3.28031 2.35016,10.62118 0.23294,15.1509 -1.28419,2.74747 -4.55304,5.57161 -4.12617,3.56482 z M 399.2003,114.64042 c -0.24438,-0.45662 -0.27157,-9.53709 -0.11907,-39.75479 0.18127,-35.915695 0.23637,-39.350716 0.66452,-41.426893 0.25678,-1.245141 0.64977,-2.680612 0.87332,-3.189935 0.3784,-0.862144 0.41012,-0.378349 0.45961,7.011458 0.0292,4.365625 0.0272,23.058436 -0.004,41.539581 -0.0522,30.439319 -0.0987,33.724949 -0.49461,34.907449 -0.49793,1.4874 -0.92181,1.76802 -1.37933,0.91313 z M 368.48493,92.572548 c -0.70825,-0.384722 -1.81208,-2.290995 -1.81208,-3.129396 0,-1.722659 1.71156,-3.344792 3.53105,-3.346561 2.07732,-0.002 3.48041,1.472407 3.48041,3.657362 0,1.28961 -0.084,1.486369 -0.9883,2.315104 -0.84207,0.771698 -1.17484,0.904144 -2.24896,0.895118 -0.69336,-0.0058 -1.57631,-0.182058 -1.96212,-0.391627 z m 64.71803,0.03028 c -2.19524,-0.956211 -2.46059,-3.971109 -0.50094,-5.691709 0.72402,-0.635698 1.17474,-0.815298 2.0441,-0.814527 2.17808,0.0019 3.89029,1.868372 3.48298,3.796732 -0.54792,2.594095 -2.66766,3.736814 -5.02614,2.709504 z M 403.40798,29.336111 c -2.46317,-1.337862 -2.31824,-5.319256 0.23243,-6.384991 2.48871,-1.03985 5.10279,0.635848 5.1002,3.269367 -0.003,2.646552 -2.9865,4.389916 -5.33263,3.115624 z"
         id="path8" /><path
         style="fill:#ef5260"
         d="m 434.29534,82.060192 c -1.48807,-1.526416 -3.6014,-3.832501 -4.6963,-5.124633 -2.01882,-2.382501 -7.62827,-9.759117 -7.62827,-10.03144 0,-0.08169 0.50601,0.197568 1.12448,0.620566 1.37697,0.941777 3.18519,1.87121 10.58333,5.439883 3.62438,1.748309 5.75469,2.919766 5.75469,3.164509 0,0.213729 -0.41672,1.909082 -0.92605,3.767453 -0.50932,1.858371 -0.92604,3.649191 -0.92604,3.979599 0,1.252921 -0.6376,0.900548 -3.28584,-1.815937 z m -107.30787,0.095 c -1.33439,-0.371356 -1.72355,-2.299707 -0.6756,-3.347661 0.76653,-0.766529 1.49341,-0.820178 2.56178,-0.189076 1.38338,0.81718 1.3231,2.377492 -0.12598,3.261077 -0.45995,0.280458 -0.8958,0.4985 -0.96857,0.484538 -0.0728,-0.01396 -0.42899,-0.107956 -0.79163,-0.208878 z m 149.48746,-1.351256 c -0.35278,-0.352778 -0.52917,-0.881945 -0.52917,-1.5875 0,-2.082123 1.96011,-2.843103 3.45994,-1.343269 0.95441,0.954411 0.99774,1.93673 0.12397,2.810504 -0.8228,0.822795 -2.29428,0.880728 -3.05474,0.120265 z M 371.4404,79.282582 c -0.34182,-0.836745 -0.95905,-2.227063 -1.37161,-3.089596 -0.41256,-0.862533 -0.748,-1.695971 -0.74543,-1.852083 0.003,-0.156113 0.62765,-0.57552 1.38906,-0.932015 2.71606,-1.271664 9.38909,-4.93358 13.55522,-7.438608 l 1.05834,-0.636359 -0.50675,0.789695 c -2.17574,3.390597 -11.85587,14.68032 -12.58732,14.68032 -0.0935,0 -0.44969,-0.68461 -0.79151,-1.521354 z"
         id="path3" /><path
         style="fill:#1e97c7"
         d="m 456.61226,133.25758 c -1.25237,-3.36988 -6.38849,-12.05038 -9.98006,-16.86719 -2.99462,-4.0162 -8.00385,-9.13097 -11.09355,-11.32727 -2.81046,-1.9978 -7.19453,-4.27029 -9.20226,-4.77002 -5.30494,-1.320396 -10.82839,-0.38555 -15.7142,2.65964 -2.39051,1.48994 -6.62065,5.64889 -8.21436,8.07612 -0.64361,0.98022 -1.17845,1.75413 -1.18853,1.71979 -0.0101,-0.0343 0.0129,-18.594877 0.0511,-41.245652 0.0683,-40.525163 0.0776,-41.181097 0.57961,-41.049806 0.39905,0.104353 0.54783,0.459044 0.6829,1.628021 0.76374,6.610186 3.74687,13.45505 10.79872,24.777932 6.83533,10.975218 12.64556,18.674667 18.88965,25.031662 l 2.49693,2.542079 -1.08533,0.173551 c -2.50733,0.400937 -4.27756,3.293467 -3.6906,6.030364 0.47109,2.196648 2.73393,4.167906 4.80314,4.18424 2.88215,0.02275 5.59441,-3.324831 5.09447,-6.287794 l -0.16576,-0.982437 2.32697,-0.591422 c 2.90635,-0.738679 6.44082,-2.484665 11.71968,-5.789384 7.84594,-4.91179 12.26989,-6.613263 16.6476,-6.402739 1.88328,0.09057 2.51206,0.240998 3.69006,0.882825 0.78097,0.425511 1.48133,0.933609 1.55635,1.129107 0.075,0.195498 -0.2103,0.734556 -0.63404,1.197908 -4.10139,4.484794 -5.28509,7.834777 -6.98216,19.760163 -1.80584,12.689782 -3.51558,19.596112 -6.87366,27.765472 -1.3473,3.27764 -3.86662,8.48245 -4.10582,8.48245 -0.075,0 -0.25811,-0.32743 -0.40684,-0.72761 z m -107.58903,-0.79744 c -0.16519,-0.39815 -0.94977,-2.21219 -1.74352,-4.0312 -4.12998,-9.46454 -6.09873,-16.47081 -8.25256,-29.368755 -1.09598,-6.563112 -2.1499,-10.956274 -3.28981,-13.713233 -1.02235,-2.472606 -2.95329,-5.38158 -4.2799,-6.44767 -0.56788,-0.456359 -1.0325,-0.966134 -1.0325,-1.132835 0,-0.41742 1.26383,-1.562668 2.38125,-2.157826 1.45787,-0.776489 5.86104,-0.696058 8.46666,0.154657 2.33316,0.761758 7.65544,3.452446 11.92162,6.026988 4.20936,2.54026 8.55736,4.842473 10.42195,5.518302 l 1.57378,0.570421 -0.0713,1.343614 c -0.088,1.658216 0.45714,2.887615 1.83075,4.128588 2.52615,2.282223 6.38197,1.59041 7.91811,-1.420669 1.33523,-2.617267 -0.14879,-6.237282 -2.95851,-7.216754 l -0.72386,-0.252338 1.11718,-1.212328 c 0.61444,-0.66678 1.78388,-1.936201 2.59874,-2.820934 7.07954,-7.686559 9.74159,-11.140098 13.45481,-17.455238 4.49401,-7.643034 6.7197,-13.171548 8.74583,-21.7242 0.77577,-3.274645 2.3769,-8.694111 2.52289,-8.539414 0.0378,0.04001 -0.0919,0.965716 -0.28816,2.057122 -0.28783,1.600752 -0.36219,9.477807 -0.38461,40.745831 -0.0262,36.542611 -0.0535,38.724321 -0.47694,38.112611 -1.19029,-1.71952 -4.06469,-5.09214 -5.72793,-6.72076 -2.44017,-2.38937 -5.98658,-4.69598 -8.8291,-5.74253 -3.18393,-1.172249 -6.82875,-1.376968 -9.44829,-0.53068 -6.58862,2.12856 -12.14395,7.5423 -17.77085,17.31788 -2.56233,4.45154 -5.49184,10.36031 -6.31097,12.7291 -0.89056,2.5754 -0.98468,2.69831 -1.36474,1.78225 z m 14.25135,-47.026906 c -1.2142,-0.497176 -3.1661,-1.465862 -4.33755,-2.152635 l -2.1299,-1.248678 0.76567,-0.630241 c 2.13243,-1.755237 3.84629,-3.009839 5.45766,-3.995187 1.94384,-1.188646 5.35005,-2.952557 5.70156,-2.952557 0.27493,0 1.73173,2.904062 2.558,5.099273 l 0.62105,1.649968 -1.32223,1.653956 c -0.79174,0.990385 -1.60287,1.724395 -2.02174,1.829524 -0.38473,0.09656 -1.16479,0.512609 -1.73345,0.924548 -0.56867,0.411939 -1.10538,0.743807 -1.19268,0.737484 -0.0873,-0.0063 -1.15218,-0.418278 -2.36639,-0.915455 z m 75.0259,0.19711 c -0.62911,-0.695161 -0.5715,-1.593676 0.31794,-4.9587 0.82911,-3.136732 1.24531,-4.365625 1.47855,-4.365625 0.54383,0 7.51048,4.310995 8.85734,5.480959 0.4102,0.356326 -3.38904,2.356219 -6.35418,3.344792 -3.01991,1.006835 -3.76183,1.092865 -4.29965,0.498574 z"
         id="path2" /><path
         style="fill:#08090a"
         d="m 396.70306,220.76344 c -1.52187,-0.30438 -4.52722,-1.47572 -6.21771,-2.42336 -4.85417,-2.7211 -13.27343,-10.44402 -18.40869,-16.88615 -9.18243,-11.51927 -16.04651,-25.46506 -18.65678,-37.90516 l -0.57705,-2.75009 -1.18259,-0.3163 c -1.43431,-0.38362 -3.25962,-1.60033 -4.14786,-2.76487 -1.92562,-2.52461 -3.07905,-6.54416 -3.12684,-10.89662 -0.0458,-4.17598 1.0216,-7.4776 3.228,-9.98421 0.58721,-0.6671 1.06765,-1.29296 1.06765,-1.39081 0,-0.0979 -1.00898,-2.22271 -2.24218,-4.7219 -4.0072,-8.12101 -6.73547,-17.47305 -8.85244,-30.34465 -1.57303,-9.564314 -3.29942,-15.360004 -5.45666,-18.318613 -0.94075,-1.29022 -1.44039,-1.579319 -1.44039,-0.833438 0,0.232833 -0.40481,0.828146 -0.89958,1.322917 -0.71956,0.719561 -1.10884,0.899583 -1.94525,0.899583 -1.44174,0 -2.74446,-0.92309 -3.21726,-2.279709 -0.33934,-0.973657 -0.32722,-1.165183 0.13229,-2.090966 0.65688,-1.323433 1.64236,-2.022666 2.90095,-2.058343 0.8154,-0.02311 1.18585,-0.222367 1.91602,-1.030588 0.49786,-0.551064 1.67176,-1.379317 2.60868,-1.840561 1.52749,-0.751979 1.93145,-0.835297 3.9098,-0.80641 1.21347,0.01772 3.05467,0.225172 4.09157,0.46101 3.6273,0.825012 8.77666,3.257025 13.20304,6.235718 l 1.93046,1.299091 2.17058,-1.82223 c 3.01933,-2.534773 5.37136,-3.99698 11.03412,-6.859676 7.88138,-3.984281 12.61008,-6.791573 16.04097,-9.523058 1.72773,-1.375515 3.35684,-2.814298 3.62026,-3.197294 0.55533,-0.807424 3.16308,-6.16491 3.94494,-8.104691 1.1764,-2.918618 2.4004,-6.827914 3.39648,-10.847916 1.62824,-6.571339 1.81669,-7.214437 3.02365,-10.318749 0.62236,-1.600729 1.20941,-3.621394 1.30454,-4.490366 0.25031,-2.286455 1.1269,-3.633561 2.94242,-4.521812 1.228,-0.600807 1.69508,-0.693385 2.88085,-0.571003 2.89822,0.299123 4.65005,2.227103 4.65005,5.117624 0,2.807064 -2.15061,5.127015 -4.75278,5.127015 h -1.13441 l 0.12389,2.182812 c 0.085,1.497912 0.39003,2.967534 0.97211,4.683755 1.73062,5.102604 5.98286,13.061977 10.31543,19.308501 3.77143,5.437502 7.04482,7.860703 18.74624,13.87736 7.79062,4.005793 11.95279,6.39675 14.40473,8.274784 0.8257,0.632428 1.58604,1.149869 1.68967,1.149869 0.10362,0 1.53093,-0.826839 3.17181,-1.837421 7.32669,-4.512376 11.92229,-6.07796 16.98147,-5.785088 2.13332,0.123496 4.34728,0.907773 5.80953,2.057979 0.37579,0.295596 1.00678,0.537447 1.40219,0.537447 0.99059,0 2.42232,1.016454 2.98889,2.12194 0.8252,1.610154 0.0735,3.707313 -1.57581,4.396449 -1.54658,0.646201 -2.41864,0.472352 -3.61083,-0.719834 -1.28617,-1.286169 -1.26353,-1.302341 -2.85479,2.039309 -1.32229,2.776803 -2.13473,6.261332 -3.13854,13.461093 -1.40759,10.09591 -2.71738,16.12896 -5.07472,23.37484 -1.55968,4.79408 -4.85962,12.26973 -6.34289,14.36913 -0.66185,0.93677 -0.6308,1.20849 0.29766,2.60499 0.43537,0.65484 1.11947,2.14312 1.52022,3.30729 0.65964,1.91622 0.72864,2.46744 0.72864,5.82083 0,4.21609 -0.36241,5.97966 -1.85721,9.03765 -1.13294,2.31771 -3.3196,4.45356 -5.02703,4.91022 l -1.13227,0.30284 -0.59543,2.53194 c -2.02857,8.62598 -5.41395,16.74025 -10.18645,24.41542 -7.99853,12.8633 -22.56593,26.52608 -33.32484,31.25539 -3.39637,1.49295 -5.71052,2.03094 -8.59333,1.99776 -1.38537,-0.016 -2.99511,-0.12424 -3.57719,-0.24067 z m 8.74682,-2.66093 c 7.09765,-2.50442 14.75128,-7.95289 23.0792,-16.42963 7.4134,-7.54587 12.19802,-14.25341 16.48152,-23.10541 5.09869,-10.53659 7.4023,-20.74752 7.46132,-33.07291 0.0385,-8.04107 -1.08398,-14.98452 -3.28784,-20.33774 -2.08373,-5.06146 -5.5357,-9.96756 -10.1789,-14.46674 -7.81565,-7.57323 -14.92793,-10.15616 -22.17939,-8.05477 -7.56701,2.19283 -12.44745,7.26406 -16.8024,17.45925 l -0.33906,0.79375 -0.97617,-1.98437 c -4.75191,-9.65972 -10.93587,-15.15133 -18.46452,-16.39725 -5.0003,-0.8275 -9.91918,1.45039 -15.06117,6.97468 -3.62436,3.89382 -6.50496,8.74514 -8.16332,13.74816 -0.94788,2.85958 -2.57816,10.46914 -3.04121,14.19524 -1.09267,8.79257 -0.40405,19.3792 1.84148,28.31041 1.2573,5.00066 2.20193,7.72517 4.37686,12.62378 6.1624,13.8796 16.67756,27.58685 27.37866,35.69 2.46908,1.86965 6.60327,4.09403 8.46666,4.55544 0.65485,0.16215 1.42875,0.35251 1.71979,0.42302 0.29104,0.0705 1.60774,0.0791 2.92599,0.019 1.81117,-0.0825 2.97485,-0.31315 4.7625,-0.94393 z m -10.5989,-17.56927 c -10.28102,-1.90826 -20.83043,-11.67365 -27.11525,-25.10007 -1.45958,-3.11813 -2.45074,-6.05329 -3.04892,-9.02886 -0.23319,-1.15995 -0.46052,-2.14555 -0.50519,-2.19022 -0.0447,-0.0447 -0.40313,0.0412 -0.79659,0.19077 -1.86001,0.70718 -4.60123,-0.20692 -5.56399,-1.85539 l -0.52481,-0.8986 0.918,0.69485 c 1.82162,1.37882 3.82228,1.5105 6.04841,0.39808 0.8255,-0.41251 1.19437,-0.48839 1.27467,-0.26221 0.0622,0.17505 0.70665,1.30614 1.43222,2.51354 4.46867,7.43618 10.59597,12.5772 17.90361,15.02176 4.6024,1.5396 6.92529,1.92304 12.49138,2.06196 9.81757,0.24502 16.88848,-1.10011 23.17217,-4.40815 4.76415,-2.50808 8.05905,-5.02689 11.11369,-8.49593 1.86507,-2.11809 4.42404,-5.81371 4.7359,-6.8395 l 0.18904,-0.62179 0.89686,0.86928 c 0.76459,0.74107 1.12936,0.88609 2.47325,0.9833 0.86701,0.0627 1.94398,-0.0141 2.39325,-0.17074 1.12749,-0.39304 0.75989,0.0973 -0.58873,0.7853 -1.0536,0.53751 -2.52443,0.58747 -3.6445,0.12378 -0.31882,-0.13199 -0.4694,0.19019 -0.72936,1.56061 -1.49021,7.85566 -6.61108,17.17918 -12.92411,23.53079 -4.8254,4.85489 -10.18837,8.28944 -15.9231,10.19748 -3.96945,1.3207 -9.55764,1.70473 -13.6779,0.93996 z m 1.50794,-26.85587 c -0.91688,-0.43376 -2.77321,-1.50523 -4.12519,-2.38104 -2.20219,-1.42659 -2.60114,-1.5924 -3.83155,-1.5924 -3.54818,0 -5.58974,-2.16242 -5.58974,-5.92065 0,-4.25989 2.18762,-6.78969 6.26283,-7.24242 l 1.7858,-0.19838 0.44404,-1.45946 c 1.40978,-4.63358 1.8174,-13.35752 0.77988,-16.69108 -0.28596,-0.91878 -0.48063,-1.70979 -0.43261,-1.75781 0.22878,-0.22878 1.57091,4.02244 1.89982,6.01772 0.69511,4.21685 0.26079,9.38421 -1.19712,14.2429 -0.48535,1.61752 -0.65605,1.9071 -1.02745,1.74312 -0.85101,-0.37575 -2.40114,-0.42609 -3.36142,-0.10917 -3.12879,1.03259 -4.7249,4.86341 -3.27459,7.85933 0.70423,1.45476 1.69072,1.97209 4.07183,2.13535 1.70966,0.11722 2.0295,0.242 4.10315,1.6006 6.04123,3.95808 6.85208,3.97114 12.71611,0.20482 l 2.72124,-1.74778 h 2.29637 c 1.9541,0 2.43036,-0.0902 3.19538,-0.60519 1.11786,-0.7525 1.62281,-1.76817 1.77429,-3.56885 0.15793,-1.87717 -0.47358,-3.44775 -1.92376,-4.78448 -1.2859,-1.1853 -2.32005,-1.4865 -4.48681,-1.30682 l -1.40973,0.11691 -0.55705,-2.53256 c -1.2682,-5.76573 -1.34457,-9.43323 -0.28302,-13.59213 0.30458,-1.19328 0.57348,-2.18901 0.59757,-2.21274 0.0241,-0.0237 0.0591,2.47658 0.0777,5.55625 0.0302,4.97662 0.10612,5.89367 0.68266,8.24523 l 0.64868,2.64584 1.79796,0.17978 c 2.38689,0.23869 3.96184,1.07246 5.07385,2.6861 1.9537,2.835 1.92916,6.43452 -0.0589,8.63502 -1.32681,1.46862 -2.33887,1.86055 -4.80431,1.86055 h -2.10233 l -2.22331,1.49307 c -5.07695,3.40942 -7.19307,3.92198 -10.24037,2.48037 z m -9.64673,-21.32513 c -3.4209,-2.35914 -9.20301,-3.05553 -13.31731,-1.60392 -1.43733,0.50712 -3.90242,1.76225 -4.11564,2.09553 -0.30752,0.4807 -0.99284,-0.0278 -1.42032,-1.05392 -0.22999,-0.55204 -0.85883,-1.45649 -1.39742,-2.00989 -2.75809,-2.83391 -6.60548,-3.97877 -9.9992,-2.97546 l -1.29882,0.38399 0.65893,-0.54406 c 0.9218,-0.76109 2.83702,-1.69932 4.24005,-2.07712 l 1.18595,-0.31934 -1.32267,-0.66312 c -1.29651,-0.65 -2.5133,-1.58368 -2.5133,-1.92851 0,-0.0957 0.78824,0.2227 1.75164,0.70758 2.06686,1.04024 3.73705,1.16281 5.03775,0.3697 0.90162,-0.54976 0.95627,-0.66769 1.41818,-3.05997 0.51341,-2.65904 1.88232,-5.17246 3.72561,-6.84054 1.85165,-1.67565 3.34072,-2.28759 5.56652,-2.28759 3.32891,0 6.34055,1.94935 8.88225,5.74924 3.02291,4.5193 4.37524,8.94538 4.25202,13.9166 l -0.0746,3.00947 z m 25.06909,-0.70612 c -0.25133,-2.01346 0.29015,-6.20982 1.09017,-8.44851 1.90257,-5.32395 5.43803,-10.08073 8.83473,-11.88669 1.02708,-0.54607 1.55407,-0.63303 3.83646,-0.63303 2.41765,0 2.76383,0.0654 4.01397,0.75827 3.03753,1.68349 5.1773,4.6991 6.04497,8.51925 0.6078,2.67601 0.58303,2.62809 1.53645,2.97285 1.29592,0.46861 2.24449,0.38213 4.01503,-0.36605 2.39303,-1.01124 2.45343,-1.01971 1.46021,-0.20469 -0.50657,0.41568 -1.21909,1.01178 -1.58338,1.32465 l -0.66234,0.56886 1.98025,0.59336 c 2.37786,0.7125 3.65719,1.32623 4.34129,2.08266 0.50609,0.5596 0.50163,0.55941 -0.79375,-0.0327 -1.0354,-0.47326 -1.7241,-0.58643 -3.35639,-0.55155 -1.75426,0.0375 -2.33289,0.17894 -3.96875,0.97017 -2.14974,1.03979 -4.05234,2.77029 -4.99087,4.53943 -0.3451,0.65052 -0.72347,1.18275 -0.84083,1.18275 -0.11736,0 -0.99668,-0.47242 -1.95404,-1.04983 -2.46333,-1.4857 -4.17628,-1.9252 -7.49078,-1.92191 -3.33922,0.003 -5.42615,0.45898 -8.69973,1.89954 -1.34008,0.58971 -2.48213,1.0722 -2.53789,1.0722 -0.0558,0 -0.17941,-0.62507 -0.27478,-1.38906 z m -3.95381,-12.7 c 0.0989,-0.32742 0.28877,-0.71165 0.42189,-0.85385 0.13312,-0.1422 0.10809,0.12569 -0.0556,0.59531 -0.33506,0.96115 -0.64455,1.17961 -0.36627,0.25854 z m 2.99831,-12.20922 -1.22311,-1.35487 0.9259,-1.45311 c 1.21035,-1.89952 3.33664,-4.39184 5.02966,-5.89549 3.96545,-3.52187 10.3395,-5.28151 15.65362,-4.32138 6.08586,1.09956 10.04044,5.16237 11.83621,12.16012 0.21797,0.84936 0.33869,1.60189 0.26829,1.67229 -0.0704,0.0704 -0.51761,-0.60294 -0.99378,-1.49633 -1.01994,-1.9136 -3.29403,-4.35993 -5.14422,-5.53384 -3.88026,-2.46195 -9.4761,-2.52558 -14.8062,-0.16836 -2.40577,1.06394 -5.80471,3.42701 -8.14052,5.65958 l -2.18274,2.08626 z m -24.44147,-0.47409 c -3.17916,-3.22842 -7.39413,-5.88237 -11.1125,-6.99698 -2.24324,-0.67243 -5.84938,-0.61141 -7.91614,0.13394 -2.94806,1.06319 -5.63682,3.31232 -7.63104,6.38333 l -0.77316,1.19063 0.18793,-0.92604 c 0.37769,-1.8611 1.73477,-5.15649 2.79135,-6.77819 2.07395,-3.18322 4.38446,-4.74438 8.22713,-5.55888 5.07578,-1.07588 11.0389,0.95007 15.28024,5.19142 1.86784,1.86783 4.51807,5.59716 4.51807,6.35769 0,0.41988 -1.56518,2.65192 -1.84256,2.62761 -0.078,-0.007 -0.85619,-0.73787 -1.72932,-1.62453 z m -34.26059,29.20822 c -0.46875,-3.61112 -0.63863,-12.01106 -0.30448,-15.05513 0.32411,-2.95255 0.23846,-3.5203 -0.53107,-3.5203 -0.66362,0 -2.35192,0.86495 -2.9146,1.4932 -0.63044,0.70392 -1.70191,3.23879 -2.04477,4.83749 -0.62993,2.93723 -0.1512,7.87032 1.03407,10.65565 1.01768,2.39153 1.9257,3.53348 3.54954,4.46399 l 1.34065,0.76824 0.0848,-0.66979 c 0.0467,-0.36839 -0.0497,-1.7064 -0.21418,-2.97335 z m 102.853,2.60933 c 2.79267,-2.023 4.53164,-6.3742 4.55412,-11.39518 0.0217,-4.859 -1.82869,-8.95587 -4.43338,-9.81549 -0.98301,-0.32442 -1.48425,0.004 -1.25126,0.81966 0.0623,0.21828 0.25417,1.88516 0.42629,3.70417 0.44898,4.74495 0.16097,10.06285 -0.9135,16.86718 -0.12695,0.80389 0.32925,0.75303 1.61773,-0.18034 z m 3.51295,-26.75377 c 4.86443,-9.69351 7.36575,-18.52919 9.50891,-33.589322 1.69707,-11.925386 2.88077,-15.275369 6.98216,-19.760163 0.42374,-0.463352 0.70906,-1.00241 0.63404,-1.197908 -0.075,-0.195498 -0.77538,-0.703596 -1.55635,-1.129107 -1.178,-0.641827 -1.80678,-0.792258 -3.69006,-0.882825 -4.37771,-0.210524 -8.80166,1.490949 -16.6476,6.402739 -5.27886,3.304719 -8.81333,5.050705 -11.71968,5.789384 l -2.32697,0.591422 0.16576,0.982437 c 0.49994,2.962963 -2.21232,6.310546 -5.09447,6.287794 -2.06921,-0.01633 -4.33205,-1.987592 -4.80314,-4.18424 -0.58696,-2.736897 1.18327,-5.629427 3.6906,-6.030364 l 1.08533,-0.173551 -2.49693,-2.542079 c -7.42501,-7.559279 -15.36868,-18.561924 -22.71826,-31.466701 -3.8404,-6.743167 -6.26649,-12.895857 -6.83766,-17.340632 -0.29696,-2.310953 -1.0587,-4.008509 -1.70245,-3.793928 -0.40686,0.135623 -2.72608,7.274383 -3.75632,11.562309 -2.18501,9.094159 -4.30201,14.385431 -8.85047,22.121075 -3.71322,6.31514 -6.37527,9.768679 -13.45481,17.455238 -0.81486,0.884733 -1.9843,2.154154 -2.59875,2.820934 l -1.11717,1.212328 0.72386,0.252338 c 2.80971,0.979472 4.29374,4.599487 2.95851,7.216754 -1.53614,3.011079 -5.39196,3.702892 -7.91811,1.420669 -1.37361,-1.240973 -1.91877,-2.470372 -1.83076,-4.128588 l 0.0713,-1.343614 -1.57377,-0.570421 c -1.86459,-0.675829 -6.21259,-2.978042 -10.42195,-5.518302 -4.26618,-2.574542 -9.58846,-5.26523 -11.92162,-6.026988 -2.60562,-0.850715 -7.00879,-0.931146 -8.46666,-0.154657 -1.11742,0.595158 -2.38125,1.740406 -2.38125,2.157826 0,0.166701 0.46462,0.676476 1.0325,1.132835 1.32661,1.06609 3.25755,3.975064 4.2799,6.44767 1.13521,2.745603 2.19234,7.142336 3.27698,13.629349 2.02306,12.099629 3.60924,18.072479 7.07948,26.658259 2.06692,5.11381 3.33049,7.73944 3.49783,7.26836 0.0729,-0.20512 0.44748,-1.26591 0.83248,-2.35732 1.3621,-3.86132 6.37885,-13.21508 9.6604,-18.01187 3.03006,-4.42916 7.65427,-8.83067 11.11045,-10.57534 2.98342,-1.50602 4.79084,-1.91999 7.74681,-1.77431 6.16087,0.30362 11.92223,3.88158 17.57001,10.91147 1.0508,1.30794 2.09244,2.7614 2.31476,3.22991 0.22232,0.46851 0.52531,0.92667 0.67332,1.01814 0.41458,0.25623 0.97987,-0.34958 1.32666,-1.42177 0.91608,-2.83225 6.15746,-8.70149 9.79567,-10.96909 4.88581,-3.04519 10.40926,-3.980036 15.7142,-2.65964 2.00773,0.49973 6.3918,2.77222 9.20226,4.77002 3.0897,2.1963 8.09893,7.31107 11.09355,11.32727 3.59157,4.81681 8.72769,13.49731 9.98006,16.86719 0.14873,0.40018 0.3318,0.72761 0.40684,0.72761 0.075,0 0.73679,-1.19637 1.47057,-2.6586 z M 372.14858,92.721828 c 1.80492,-1.100527 2.35935,-3.01677 1.37803,-4.762793 -1.10495,-1.965995 -2.97284,-2.613375 -4.90075,-1.698522 -1.31011,0.621685 -1.95301,1.659277 -1.95301,3.151995 0,1.447618 0.7364,2.840405 1.81013,3.4236 1.0017,0.54407 2.67124,0.49202 3.6656,-0.11428 z m 64.2248,0.111065 c 2.61947,-1.243018 2.59014,-5.546998 -0.0453,-6.648155 -1.54561,-0.645799 -2.91592,-0.331083 -4.10395,0.942545 -0.86164,0.923724 -0.99282,1.232048 -0.99196,2.331511 0.002,2.88269 2.59331,4.58316 5.14121,3.374099 z m -69.53973,-7.221688 c 0.56866,-0.411939 1.35019,-0.828355 1.73672,-0.925369 0.38653,-0.09701 1.09589,-0.682706 1.57635,-1.30154 0.48047,-0.618833 2.07335,-2.375308 3.53975,-3.903277 3.98168,-4.148851 9.37987,-10.625762 11.13276,-13.357403 l 0.50675,-0.789695 -1.05834,0.636359 c -4.85656,2.920171 -10.54118,5.998579 -15.7427,8.525189 -5.00276,2.430056 -7.18875,3.808502 -10.95214,6.906211 l -0.76567,0.630241 2.1299,1.248678 c 1.76248,1.03327 6.11556,3.025477 6.70394,3.06809 0.0873,0.0063 0.62401,-0.325545 1.19268,-0.737484 z m 73.9939,0.06903 c 2.9548,-0.765667 8.1445,-3.170332 8.12445,-3.764495 -0.003,-0.102169 -1.46197,-1.159003 -3.24115,-2.34852 -3.07312,-2.05461 -8.36114,-4.866612 -16.84682,-8.958597 -2.10229,-1.013776 -4.51331,-2.287116 -5.35781,-2.829646 -0.8445,-0.542529 -1.53545,-0.927899 -1.53545,-0.856377 0,0.252019 5.66123,7.691571 7.54312,9.912586 3.27229,3.861967 8.75141,9.204056 9.48431,9.247115 0.12452,0.0073 0.94772,-0.173614 1.82935,-0.402066 z m -112.07988,-3.8007 c 1.44908,-0.883585 1.50936,-2.443897 0.12598,-3.261077 -1.06837,-0.631102 -1.79525,-0.577453 -2.56178,0.189076 -1.32754,1.327541 -0.56918,3.165784 1.46723,3.556539 0.0728,0.01396 0.50862,-0.20408 0.96857,-0.484538 z m 150.782,-1.195864 c 0.87377,-0.873774 0.83044,-1.856093 -0.12397,-2.810504 -1.49983,-1.499834 -3.45994,-0.738854 -3.45994,1.343269 0,1.360914 0.71282,2.116666 1.99641,2.116666 0.64319,0 1.14221,-0.204142 1.5875,-0.649431 z M 407.15423,29.408626 c 3.00576,-2.051698 2.1031,-6.260288 -1.48717,-6.933827 -1.13202,-0.212368 -3.05284,0.593422 -3.67384,1.541186 -0.80954,1.23551 -0.81192,2.639448 -0.007,4.013287 1.14844,1.95967 3.42675,2.56778 5.1678,1.379354 z"
         id="path1" /><circle
         style="fill:#ffaaaa;stroke-width:0.288384"
         id="path9"
         cx="361.95575"
         cy="159.93106"
         r="5.4097638" /><circle
         style="fill:#ffaaaa;stroke-width:0.288384"
         id="circle9"
         cx="440.2153"
         cy="159.89371"
         r="5.4097638" /></g><g
       id="g30"
       transform="rotate(-53.240921,690.00756,-385.31132)"><path
         style="fill:#f9f9f9;fill-opacity:1;stroke:#000000;stroke-width:2.45634"
         d="m 468.63414,240.79752 v -5.42454 c 0,0 4.26831,-7.10148 16.04139,-7.72934 11.77318,-0.6276 22.73411,6.03021 28.33171,16.25271 0,0 2.91223,9.33144 -1.9847,12.99595 0,0 0.35649,29.92098 -1.81823,43.45011 0,0 0.17533,15.34874 -0.61089,18.38621 0,0 -12.42685,23.04625 -15.04943,30.62017 -2.62247,7.57391 -7.97997,11.05136 -10.77627,10.52421 -2.79619,-0.52731 -8.53583,-4.54571 -7.23607,-15.69001 0,0 -5.83314,4.79786 -12.37089,5.68793 0,0 -10.51298,0.6248 -11.87621,-5.2087 -0.76407,-3.26856 1.21179,-8.98599 7.56176,-13.0379 6.06037,-3.8672 10.77805,-10.72977 13.17474,-14.93032 0,0 2.09955,-9.98613 2.38113,-16.90724 0.28112,-6.92118 -0.93871,-15.51435 -5.12367,-17.5618 -4.18493,-2.04738 -10.33824,2.95363 -12.4987,7.72727 -2.16042,4.77357 -6.81924,17.58226 -11.36376,21.50363 -4.54452,3.92151 -12.30478,1.93698 -15.70283,-2.7222 -3.39815,-4.65908 -1.14581,-13.44631 2.88357,-17.18388 4.02934,-3.73747 7.97645,-12.39646 9.16738,-18.59984 1.19083,-6.20334 5.66815,-22.31912 26.86997,-32.15242 z"
         id="path27" /><path
         style="fill:none;fill-opacity:1;stroke:#000000;stroke-width:2.45634"
         d="m 474.9231,344.16292 c 0,0 13.60077,-14.1266 16.26616,-20.26452 2.66539,-6.13789 9.86172,-30.32761 10.04423,-37.6296"
         id="path28" /><path
         style="fill:none;fill-opacity:1;stroke:#000000;stroke-width:2.45634"
         d="m 501.90529,247.50711 c 0,0 5.34003,3.42273 7.9981,11.25216"
         id="path29" /><path
         style="fill:none;fill-opacity:1;stroke:#000000;stroke-width:2.45634"
         d="m 468.89993,240.99486 c 0,0 9.69463,-2.30042 15.71786,-1.37872"
         id="path30" /></g></g></svg>
