<?xml version="1.0" encoding="UTF-8" standalone="no"?>
<!-- Created with Inkscape (http://www.inkscape.org/) -->

<svg
   width="99.970383mm"
   height="119.44269mm"
   viewBox="0 0 99.970383 119.44269"
   version="1.1"
   id="svg1"
   xml:space="preserve"
   xmlns="http://www.w3.org/2000/svg"
   xmlns:svg="http://www.w3.org/2000/svg"><defs
     id="defs1" /><g
     id="layer1"
     transform="translate(-1186.0065,-125.82578)"><g
       id="g59"
       transform="matrix(2.7765915,0,0,2.7765915,-2167.4293,-49.470962)"><path
         style="fill:#ffffff;fill-opacity:1;stroke:#000000;stroke-width:0.731305"
         d="m 1210.0131,101.11205 0.8991,-3.633991 c 0,0 -1.113,-1.698232 -1.7551,-2.932969 0,0 0.055,-11.519308 -0.5829,-18.709673 0,0 -0.6968,-5.145011 -0.3651,-6.469772 0.3316,-1.324758 2.011,-2.374721 3.5406,-2.363745 1.5299,0.01106 3.3945,0.976543 3.8508,8.482662 0,0 2.0484,-11.535018 6.0078,-11.496168 0,0 3.2358,-0.327624 3.2173,3.362512 0,0 1.8452,-4.276577 5.1079,-3.817025 0,0 3.4851,-0.148813 2.0931,5.134539 0,0 2.6598,-1.258972 3.8801,0.744127 0,0 2.2358,2.675843 -2.2789,9.182382 0,0 -3.9033,6.283524 -4.5006,8.416517 0,0 -0.6819,2.584875 1.2562,2.920194 1.9381,0.335322 3.0495,-1.246653 4.4384,-1.858413 1.3887,-0.611756 6.2356,-0.812336 7.3495,0.206885 1.1136,1.019216 1.9077,3.587343 0.3563,4.898304 -1.5515,1.31096 -5.7046,1.267593 -8.0206,3.989399 -2.3159,2.721805 -4.7344,4.676145 -8.8218,5.050585 l -0.1603,2.28204 c 0,0 -6.6361,4.51917 -15.5126,-3.38839 z"
         id="path52" /><path
         style="fill:none;fill-opacity:1;stroke:#000000;stroke-width:0.731305"
         d="m 1210.9122,97.478059 c 0,0 2.1217,2.034777 4.9039,3.862701"
         id="path53" /><path
         style="fill:none;fill-opacity:1;stroke:#000000;stroke-width:0.731305"
         d="m 1225.6852,102.21839 c 0,0 -1.6971,0.40707 -3.9155,0.40054"
         id="path54" /><path
         style="fill:none;fill-opacity:1;stroke:#000000;stroke-width:0.731305"
         d="m 1215.6005,75.484562 0.028,7.890712"
         id="path55" /><path
         style="fill:none;fill-opacity:1;stroke:#000000;stroke-width:0.731305"
         d="m 1224.8256,67.350906 c 0,0 -1.2612,4.250994 -3.1673,15.268318"
         id="path56" /><path
         style="fill:none;fill-opacity:1;stroke:#000000;stroke-width:0.731305"
         d="m 1232.0266,68.66842 c 0,0 -3.7535,7.382793 -6.2715,14.708004"
         id="path57" /><path
         style="fill:none;fill-opacity:1;stroke:#000000;stroke-width:0.731305"
         d="m 1218.7562,83.815359 c 0,0 5.008,-1.337243 8.5573,1.284554"
         id="path58" /><path
         style="fill:none;fill-opacity:1;stroke:#000000;stroke-width:0.731305"
         d="m 1218.3311,89.52171 c 0,0 3.8969,3.307752 4.906,7.041302"
         id="path59" /></g></g></svg>
