<?xml version="1.0" encoding="UTF-8" standalone="no"?>
<!-- Created with Inkscape (http://www.inkscape.org/) -->

<svg
   width="124.78179mm"
   height="114.70006mm"
   viewBox="0 0 124.78179 114.70006"
   version="1.1"
   id="svg1"
   xml:space="preserve"
   xmlns="http://www.w3.org/2000/svg"
   xmlns:svg="http://www.w3.org/2000/svg"><defs
     id="defs1" /><g
     id="layer1"
     transform="translate(-806.27034,-141.93008)"><g
       id="g31"
       transform="rotate(48.028515,718.83887,825.22166)"><path
         style="fill:#f9f9f9;fill-opacity:1;stroke:#000000;stroke-width:2.45634"
         d="m 371.67861,358.99707 c 8.59479,-7.45563 1.28192,-25.15914 -4.85998,-39.91706 -6.14152,-14.75793 -2.12961,-35.53341 -0.67677,-37.5855 1.4528,-2.0521 7.24962,-3.99299 9.8218,-2.76733 2.57215,1.22574 3.81621,4.65981 4.75766,9.17193 0.94148,4.51213 4.68192,13.19956 8.4859,17.2381 3.80395,4.03866 14.22158,3.5454 17.50082,2.3258 3.27951,-1.21964 3.95628,-8.00757 0.65914,-11.75724 -3.29714,-3.74953 -9.01904,-18.08821 -12.56333,-28.89055 -3.54438,-10.80227 -13.35366,-20.07551 -13.35366,-20.07551 v -8.78074 c -22.50005,-20.19007 -54.30057,-0.79841 -51.59701,0.50319 v 12.98174 c 0,0 -10.27355,3.8928 -15.07217,30.29317 -2.18003,11.99366 -3.64114,17.69794 -4.67998,23.6719 -1.03886,5.97393 -3.59935,34.90963 6.25637,37.623 2.03324,0.55984 3.31968,0.52827 4.82143,0.38715 0,0 1.48747,7.27302 4.79779,8.96595 3.31032,1.6928 7.58302,0.96821 9.14965,-0.69167 5.51181,-5.83877 1.10192,-32.73879 5.5976,-38.4607 3.69143,9.76519 22.35998,53.22011 30.95474,45.76447 z"
         id="path22" /><path
         style="fill:none;fill-opacity:1;stroke:#000000;stroke-width:2.45634"
         d="m 326.11636,287.84612 c 0,0 -4.77782,21.30856 -4.8122,55.22366"
         id="path23" /><path
         style="fill:none;fill-opacity:1;stroke:#000000;stroke-width:2.45634"
         d="m 341.4999,315.47149 c 0,0 -3.81222,-5.19103 -2.68358,-26.46176"
         id="path24" /><path
         style="fill:none;fill-opacity:1;stroke:#000000;stroke-width:2.45634"
         d="m 329.75032,251.59791 c 0,0 5.61028,-4.93664 14.17135,-8.67405"
         id="path25" /><path
         style="fill:none;fill-opacity:1;stroke:#000000;stroke-width:2.45634"
         d="m 381.75722,247.08628 c 0,0 -6.79594,-3.58811 -16.39318,-6.08044"
         id="path26" /></g></g></svg>
