<?xml version="1.0" encoding="UTF-8" standalone="no"?>
<!-- Created with Inkscape (http://www.inkscape.org/) -->

<svg
   width="76.755394mm"
   height="102.33546mm"
   viewBox="0 0 76.755394 102.33546"
   version="1.1"
   id="svg1"
   xml:space="preserve"
   xmlns="http://www.w3.org/2000/svg"
   xmlns:svg="http://www.w3.org/2000/svg"><defs
     id="defs1" /><g
     id="layer1"
     transform="translate(-1463.2115,-136.18293)"><g
       id="g89"
       transform="rotate(-77.241483,1507.8105,204.119)"><path
         style="fill:#ffffff;fill-opacity:1;stroke:#000000;stroke-width:2.04604"
         d="m 1480.059,227.79349 0.3326,-9.37573 c 0,0 -6.6018,-3.90164 -5.7102,-16.26249 0,0 -9.2905,-16.03451 -0.6031,-23.61532 0,0 -0.1547,-12.10612 11.0017,-10.30656 0,0 6.0241,-9.60656 15.1321,-3.46596 0,0 6.2097,-7.53742 16.9958,-2.09999 10.7861,5.43735 13.8825,14.06831 14.0703,18.9662 0.1856,4.89781 0.5568,5.81999 2.0106,7.07328 1.4523,1.25323 8.3108,-2.84785 12.1487,-5.14481 3.8371,-2.29695 17.3135,-2.4387 22.8821,1.39953 5.5694,3.83832 8.6309,13.51842 3.2881,17.75165 -5.3428,4.23324 -16.0314,-0.86263 -21.8273,2.88924 -5.7952,3.75192 -7.2282,10.12149 -24.3051,14.50692 0,0 2.7654,10.70195 -10.5881,14.29141 -13.3542,3.58953 -26.628,0.63643 -34.8259,-6.60737 z"
         id="path75" /><path
         style="fill:none;fill-opacity:1;stroke:#000000;stroke-width:2.04604"
         d="m 1480.3877,218.41776 c 0,0 5.4765,4.95079 13.4493,7.32067"
         id="path76" /><path
         style="fill:none;fill-opacity:1;stroke:#000000;stroke-width:2.04604"
         d="m 1525.473,220.10945 c 0,0 -6.5275,1.53911 -15.153,1.41206"
         id="path77" /><path
         style="fill:none;fill-opacity:1;stroke:#000000;stroke-width:2.04604"
         d="m 1500.209,164.76743 c 0,0 -3.3506,5.72262 -1.572,16.38359 1.7778,10.66104 9.442,15.1596 12.1417,16.14873 2.6995,0.98915 7.6727,-0.31782 9.5047,-3.19963 1.8319,-2.88165 -0.7038,-12.75253 -5.1131,-18.1605"
         id="path78" /><path
         style="fill:none;fill-opacity:1;stroke:#000000;stroke-width:2.04604"
         d="m 1485.077,168.23339 c 0,0 -1.361,10.37044 1.8382,16.59324 3.1984,6.22279 8.8126,14.65315 13.9187,15.23251 5.1061,0.57922 5.9514,-1.22167 7.7114,-3.8571"
         id="path79" /><path
         style="fill:none;fill-opacity:1;stroke:#000000;stroke-width:2.04604"
         d="m 1474.0752,178.53995 c 0,0 4.2756,17.92657 12.164,22.64822 7.8894,4.72166 9.2658,-4.10246 9.2658,-4.10246"
         id="path80" /><path
         style="fill:none;fill-opacity:1;stroke:#000000;stroke-width:2.04604"
         d="m 1474.6775,202.15527 c 0,0 6.9057,3.07042 13.5646,0.004"
         id="path81" /><path
         style="fill:none;fill-opacity:1;stroke:#000000;stroke-width:2.04604"
         d="m 1506.329,203.25855 c 0,0 -6.3496,4.10448 -8.5822,11.30668"
         id="path82" /></g></g></svg>
