<?xml version="1.0" encoding="UTF-8" standalone="no"?>
<!-- Created with Inkscape (http://www.inkscape.org/) -->

<svg
   width="81.063911mm"
   height="107.73506mm"
   viewBox="0 0 81.063911 107.73506"
   version="1.1"
   id="svg1"
   xml:space="preserve"
   xmlns="http://www.w3.org/2000/svg"
   xmlns:svg="http://www.w3.org/2000/svg"><defs
     id="defs1" /><g
     id="layer1"
     transform="translate(-1557.7621,-139.16325)"><g
       id="g90"
       transform="matrix(0,-0.90090357,0.90090357,0,1536.046,1539.0872)"><path
         style="fill:#ffffff;fill-opacity:1;stroke:#000000;stroke-width:2.04604"
         d="m 1479.3869,54.493935 c 0,0 -5.5028,-1.410512 -10.4937,-4.502581 -4.9916,-3.092145 -16.4575,-6.27206 -23.6299,-1.220509 -7.1725,5.05155 -9.8133,7.661848 -9.9123,12.65509 -0.1008,4.993243 2.8496,11.432724 8.9773,12.359843 6.1277,0.927117 18.2934,-4.955739 24.8116,0.556007 6.5182,5.51159 11.6909,14.654089 16.7893,17.412401 v 10.900764 c 0,0 8.1459,8.97438 16.93,9.9588 8.784,0.98442 21.1669,0.3681 26.2406,-2.05839 5.0736,-2.42633 9.9718,-8.61695 10.5317,-9.62713 V 90.894187 c 0,0 8.7508,-6.759321 11.4874,-14.578923 2.7368,-7.819525 2.006,-18.950505 -0.4948,-25.391688 -2.5009,-6.441105 -15.9557,-21.967793 -31.4814,-24.771805 -15.5257,-2.804011 -15.9811,1.078531 -15.9811,1.078531 0,0 -9.7979,-3.642352 -13.8013,0.657312 -4.0041,4.299431 -9.2858,7.190285 -9.9726,26.606784 z"
         id="path83" /><path
         style="fill:none;fill-opacity:1;stroke:#000000;stroke-width:2.04604"
         d="m 1479.3869,54.493935 c 0,0 4.4968,3.867771 11.469,-2.608443"
         id="path84" /><path
         style="fill:none;fill-opacity:1;stroke:#000000;stroke-width:2.04604"
         d="m 1503.1608,27.230148 c 0,0 9.0152,5.684657 13.9976,15.193161"
         id="path85" /><path
         style="fill:none;fill-opacity:1;stroke:#000000;stroke-width:2.04604"
         d="m 1519.1419,26.151616 c 0,0 12.5052,7.131746 13.7116,23.292161"
         id="path86" /><path
         style="fill:none;fill-opacity:1;stroke:#000000;stroke-width:2.04604"
         d="m 1536.2985,34.631468 c 0,0 5.8694,7.484219 4.7721,17.40134"
         id="path87" /><path
         style="fill:none;fill-opacity:1;stroke:#000000;stroke-width:2.04604"
         d="m 1539.6315,90.894033 c 0,0 -3.4923,3.377263 -15.3594,5.675453"
         id="path88" /><path
         style="fill:none;fill-opacity:1;stroke:#000000;stroke-width:2.04604"
         d="m 1485.9292,91.754026 c 0,0 8.8954,3.69053 15.4971,4.75514"
         id="path89" /></g></g></svg>
