<?xml version="1.0" encoding="UTF-8" standalone="no"?>
<!-- Created with Inkscape (http://www.inkscape.org/) -->

<svg
   width="50.613045mm"
   height="44.992756mm"
   viewBox="0 0 50.613045 44.992757"
   version="1.1"
   id="svg1"
   xml:space="preserve"
   xmlns="http://www.w3.org/2000/svg"
   xmlns:svg="http://www.w3.org/2000/svg"><defs
     id="defs1" /><g
     id="layer1"
     transform="translate(-236.4049,-211.49648)"><path
       style="fill:#181918;fill-opacity:1;stroke-width:0.462322"
       d="m 264.75313,211.58672 c 7.05779,0.37411 12.81213,1.97229 16.88054,4.68831 2.41498,1.61221 4.33893,3.76164 5.09398,5.69097 0.38142,0.97457 0.38803,2.56225 0.0136,3.27458 -0.57895,1.10154 -1.5706,1.5749 -3.11693,1.48785 -1.0679,-0.0601 -1.42734,-0.17063 -4.85926,-1.494 -0.97222,-0.37488 -1.80554,-0.64038 -1.85183,-0.58998 -0.1289,0.14037 -0.5739,3.43184 -0.7232,5.34926 -0.16971,2.17942 -0.16968,7.78864 6e-5,10.09389 0.40036,5.43768 1.3019,10.3885 2.38128,13.07671 0.37886,0.94355 0.40176,1.06607 0.23394,1.25151 -1.19132,1.31639 -10.76546,2.21538 -20.57286,1.93175 -7.62737,-0.22058 -12.62535,-0.93721 -13.53327,-1.94045 -0.17793,-0.19662 -0.1686,-0.27149 0.11325,-0.90881 1.07222,-2.42448 2.11581,-7.97678 2.50195,-13.31131 0.1642,-2.26856 0.16657,-8.25904 0.004,-10.19103 -0.15936,-1.89398 -0.60725,-5.23317 -0.71781,-5.35152 -0.0471,-0.0504 -0.88107,0.21535 -1.85328,0.59056 -3.59434,1.38717 -4.021,1.51684 -4.99503,1.51817 -1.10382,0.001 -1.69936,-0.16598 -2.27383,-0.63951 -0.73487,-0.60574 -0.97967,-1.21294 -0.97458,-2.41732 0.005,-1.25635 0.27154,-2.01673 1.19076,-3.40102 1.26726,-1.90843 3.7887,-4.00879 6.3713,-5.3073 3.44259,-1.73089 7.91486,-2.86814 12.8585,-3.26976 2.22302,-0.1806 5.77678,-0.24032 7.82866,-0.13155 z"
       id="path62" /><path
       style="fill:#fd5353;stroke-width:0.462322"
       d="m 262.72134,211.57441 c -0.15137,0.0292 -0.39907,0.0292 -0.55045,0 -0.15137,-0.0292 -0.0275,-0.053 0.27523,-0.053 0.30275,0 0.4266,0.0239 0.27522,0.053 z m -1.84248,-0.003 c -0.0883,0.0353 -0.19381,0.031 -0.23446,-0.01 -0.0406,-0.0406 0.0316,-0.0696 0.16055,-0.0643 0.1425,0.006 0.17149,0.0349 0.0739,0.0739 z m 6.73902,6.95445 c 0.45612,0.0907 1.47446,0.39252 2.26297,0.67067 0.78852,0.27816 1.88578,0.6645 2.43835,0.85854 1.64045,0.57605 2.13959,0.88414 2.64929,1.63522 0.23916,0.35242 0.32152,0.62763 0.32152,1.0744 0,0.72535 -0.22954,1.20512 -0.77594,1.62189 -0.64493,0.49191 -1.08797,0.44357 -3.07723,-0.33576 -0.26911,-0.10543 -1.19802,-0.41479 -2.06425,-0.68745 -1.85658,-0.58441 -3.29389,-0.75578 -5.97351,-0.71223 -1.72898,0.0281 -1.81025,0.0184 -2.07948,-0.24966 -0.58369,-0.58101 -0.24833,-2.24175 0.61701,-3.05548 0.92229,-0.86729 3.54248,-1.24554 5.68127,-0.82014 z m 9.26232,6.22679 c 0,0.0969 -0.0499,0.20711 -0.11091,0.24481 -0.061,0.0377 -0.0821,-0.0416 -0.0469,-0.17626 0.0747,-0.28563 0.15781,-0.32173 0.15781,-0.0685 z m -30.22337,0.0174 c -0.006,0.1425 -0.0349,0.17149 -0.0739,0.0739 -0.0353,-0.0883 -0.031,-0.1938 0.01,-0.23444 0.0406,-0.0406 0.0696,0.0316 0.0642,0.16054 z m 30.09139,0.61162 c -0.006,0.14249 -0.0349,0.17148 -0.0739,0.0739 -0.0353,-0.0883 -0.031,-0.19381 0.01,-0.23445 0.0406,-0.0406 0.0696,0.0316 0.0642,0.16055 z m -29.97873,0.051 c 0,0.1682 -0.0277,0.237 -0.0617,0.1529 -0.0339,-0.0841 -0.0339,-0.2217 0,-0.3058 0.0339,-0.0841 0.0617,-0.0153 0.0617,0.1529 z m 29.86606,0.67278 c 0,0.16819 -0.0474,0.30581 -0.10535,0.30581 -0.058,0 -0.0791,-0.13762 -0.0469,-0.30581 0.0321,-0.16819 0.0796,-0.30581 0.10537,-0.30581 0.0258,0 0.0469,0.13762 0.0469,0.30581 z m -29.73408,0.13252 c -0.006,0.1425 -0.0349,0.17148 -0.0739,0.0739 -0.0353,-0.0883 -0.031,-0.1938 0.01,-0.23445 0.0406,-0.0406 0.0696,0.0316 0.0642,0.16055 z m 29.58792,0.60142 c -0.002,0.20182 -0.0299,0.26959 -0.0609,0.15057 -0.031,-0.11902 -0.029,-0.28415 0.005,-0.36696 0.0335,-0.0828 0.0589,0.0146 0.0564,0.21639 z m -29.47525,0.18348 c 0,0.1682 -0.0277,0.237 -0.0617,0.15291 -0.0339,-0.0841 -0.0339,-0.22171 0,-0.30582 0.0339,-0.0841 0.0617,-0.0153 0.0617,0.15291 z m 29.34839,0.85626 c 0,0.23547 -0.0251,0.3318 -0.0559,0.21406 -0.0308,-0.11773 -0.0308,-0.31039 0,-0.42812 0.0308,-0.11774 0.0559,-0.0214 0.0559,0.21406 z m -29.22607,0.12232 c 0,0.1682 -0.0278,0.237 -0.0617,0.15291 -0.0339,-0.0841 -0.0339,-0.22171 0,-0.30582 0.0339,-0.0841 0.0617,-0.0153 0.0617,0.15291 z m 28.8591,6.60543 c 0,0.23547 -0.0251,0.3318 -0.0559,0.21406 -0.0308,-0.11773 -0.0308,-0.31039 0,-0.42812 0.0308,-0.11774 0.0559,-0.0214 0.0559,0.21406 z m 0.009,0.85626 c 0,0.1682 -0.0277,0.237 -0.0617,0.1529 -0.0339,-0.0841 -0.0339,-0.22171 0,-0.30581 0.0339,-0.0841 0.0617,-0.0153 0.0617,0.15291 z m -13.46677,21.0063 c -0.25229,0.0264 -0.66513,0.0264 -0.91742,0 -0.25228,-0.0264 -0.0459,-0.048 0.45872,-0.048 0.50457,0 0.711,0.0216 0.4587,0.048 z m -1.77367,-0.003 c -0.15138,0.0292 -0.39908,0.0292 -0.55046,0 -0.15137,-0.0292 -0.0275,-0.053 0.27523,-0.053 0.30275,0 0.4266,0.0238 0.27523,0.053 z"
       id="path60" /><path
       style="fill:#e81011;stroke-width:0.462322"
       d="m 264.58677,216.70167 c 6.18616,0.40115 11.46653,2.22718 12.54319,4.33761 0.31269,0.61292 0.30256,0.95231 -0.0755,2.52918 -0.17325,0.72268 -0.33896,1.45158 -0.36824,1.61977 -0.0293,0.1682 -0.0792,0.42153 -0.11091,0.56295 -0.0317,0.14143 -0.0826,0.44418 -0.11314,0.67278 -0.21659,1.62315 -0.22089,1.64184 -0.31835,1.38482 -0.2352,-0.62023 -1.49371,-1.52076 -2.93332,-2.09896 -0.37003,-0.14861 -1.33393,-0.43483 -2.14202,-0.63603 -2.82358,-0.70305 -5.5245,-0.98544 -9.43092,-0.98605 -5.27918,-9.2e-4 -9.50724,0.6837 -12.28,1.9881 -0.98588,0.46379 -1.52764,0.86816 -1.90281,1.42028 -0.34441,0.50683 -0.3309,0.53741 -0.59922,-1.35709 -0.11175,-0.78898 -0.33761,-1.98972 -0.50193,-2.66832 -0.36391,-1.50291 -0.36809,-1.73169 -0.0439,-2.40145 0.8929,-1.84451 4.83745,-3.4279 10.32602,-4.14499 1.41635,-0.18504 6.38499,-0.32415 7.95098,-0.2226 z m -0.66459,1.81825 c -1.06993,0.22506 -1.56551,0.4313 -1.98557,0.82631 -0.86534,0.81373 -1.2007,2.47448 -0.61701,3.05548 0.26923,0.268 0.3505,0.27776 2.07948,0.24966 2.67962,-0.0435 4.11693,0.12783 5.97351,0.71223 0.86623,0.27267 1.79514,0.58202 2.06425,0.68745 1.98926,0.77934 2.4323,0.82767 3.07723,0.33576 0.5464,-0.41676 0.77594,-0.89654 0.77594,-1.62189 0,-0.44677 -0.0824,-0.72198 -0.32152,-1.0744 -0.5097,-0.75108 -1.00884,-1.05917 -2.64929,-1.63521 -0.55257,-0.19405 -1.64983,-0.58039 -2.43835,-0.85854 -2.41935,-0.85344 -4.1725,-1.05258 -5.95867,-0.67685 z"
       id="path59" /><path
       style="fill:#4c4c4c;stroke-width:0.462322"
       d="m 261.74276,211.57441 c -0.15137,0.0292 -0.39908,0.0292 -0.55045,0 -0.15137,-0.0292 -0.0275,-0.053 0.27523,-0.053 0.30274,0 0.42659,0.0239 0.27522,0.053 z m 3.54517,0.12465 c -0.21986,0.0272 -0.55013,0.0267 -0.73394,-0.001 -0.18381,-0.0279 -0.004,-0.0502 0.39975,-0.0495 0.40366,4.6e-4 0.55405,0.0235 0.33419,0.0507 z m -6.54208,-9.3e-4 c -0.18501,0.028 -0.48776,0.028 -0.67277,0 -0.18501,-0.028 -0.0337,-0.051 0.33639,-0.051 0.37002,0 0.5214,0.0229 0.33638,0.051 z m 8.25536,0.12122 c -0.15216,0.0293 -0.37234,0.0282 -0.48929,-0.002 -0.11695,-0.0306 0.008,-0.0546 0.27666,-0.0532 0.26911,0.001 0.36479,0.0264 0.21263,0.0557 z m -10.15279,0 c -0.15215,0.0293 -0.37233,0.0282 -0.48929,-0.002 -0.11695,-0.0306 0.008,-0.0546 0.27666,-0.0532 0.26911,0.001 0.36479,0.0264 0.21263,0.0557 z m 11.31629,0.12013 c -0.11774,0.0308 -0.3104,0.0308 -0.42813,0 -0.11774,-0.0308 -0.0214,-0.0559 0.21406,-0.0559 0.23547,0 0.3318,0.0252 0.21407,0.0559 z m -12.47692,0 c -0.11774,0.0308 -0.3104,0.0308 -0.42813,0 -0.11774,-0.0308 -0.0214,-0.0559 0.21406,-0.0559 0.23547,0 0.3318,0.0252 0.21407,0.0559 z m 13.6084,0.0849 c 0,0.0258 -0.13595,0.0729 -0.30211,0.10465 -0.16615,0.0318 -0.27299,0.0106 -0.23742,-0.0469 0.0626,-0.10136 0.53953,-0.1524 0.53953,-0.0577 z m -14.90044,0.0367 c -0.0883,0.0353 -0.1938,0.031 -0.23445,-0.01 -0.0406,-0.0406 0.0316,-0.0696 0.16055,-0.0642 0.1425,0.006 0.17148,0.0349 0.0739,0.0739 z m -0.85626,0.12232 c -0.0883,0.0353 -0.1938,0.031 -0.23445,-0.01 -0.0406,-0.0406 0.0316,-0.0696 0.16055,-0.0642 0.1425,0.006 0.17148,0.0349 0.0739,0.0739 z m 17.12519,0.12232 c -0.0883,0.0353 -0.19381,0.031 -0.23446,-0.01 -0.0406,-0.0406 0.0316,-0.0696 0.16055,-0.0643 0.1425,0.006 0.17149,0.0349 0.0739,0.0739 z m 0.73393,0.12233 c -0.0883,0.0353 -0.1938,0.031 -0.23445,-0.01 -0.0406,-0.0406 0.0316,-0.0695 0.16055,-0.0643 0.1425,0.006 0.17149,0.0349 0.0739,0.0739 z m 0.61162,0.12232 c -0.0883,0.0353 -0.19381,0.031 -0.23445,-0.01 -0.0406,-0.0406 0.0316,-0.0696 0.16054,-0.0642 0.1425,0.006 0.17149,0.0349 0.0739,0.0739 z m -21.52881,0.24464 c -0.0883,0.0353 -0.1938,0.031 -0.23445,-0.01 -0.0406,-0.0406 0.0316,-0.0696 0.16055,-0.0643 0.1425,0.006 0.17149,0.0349 0.0739,0.0739 z m 23.119,0.12233 c -0.0883,0.0353 -0.1938,0.031 -0.23445,-0.01 -0.0406,-0.0406 0.0316,-0.0695 0.16055,-0.0642 0.1425,0.006 0.17149,0.0349 0.0739,0.0739 z m 1.93423,0.52805 c 0.2236,0.1445 0.0305,0.1445 -0.3058,0 -0.16132,-0.0693 -0.18215,-0.10742 -0.0612,-0.11185 0.10092,-0.004 0.26605,0.0466 0.36697,0.11185 z m 1.89601,0.73394 c 0.0416,0.0673 0.0173,0.12232 -0.0539,0.12232 -0.0713,0 -0.12954,-0.055 -0.12954,-0.12232 0,-0.0673 0.0243,-0.12233 0.0539,-0.12233 0.0297,0 0.088,0.055 0.12955,0.12233 z m 0.42812,0.12232 c 0.11025,0.0713 0.12534,0.11932 0.0378,0.12045 -0.0801,9.2e-4 -0.1797,-0.0532 -0.22128,-0.12045 -0.0939,-0.15187 -0.0515,-0.15187 0.18348,0 z m -32.66017,0.24465 c -0.10092,0.0652 -0.23853,0.11857 -0.30581,0.11857 -0.0673,0 -0.0398,-0.0534 0.0612,-0.11857 0.10092,-0.0652 0.23853,-0.11858 0.30581,-0.11858 0.0673,0 0.0398,0.0534 -0.0612,0.11858 z m 34.0363,0.3748 c 0.38685,0.19968 0.70336,0.3779 0.70336,0.39604 0,0.0182 -0.10747,0.033 -0.23882,0.033 -0.13135,0 -0.21149,-0.0273 -0.17809,-0.0607 0.0334,-0.0334 -0.23068,-0.21167 -0.58685,-0.39614 -0.35618,-0.18448 -0.59255,-0.33537 -0.52528,-0.33531 0.0673,7e-5 0.43884,0.16349 0.82568,0.36316 z m -34.6153,-0.11498 c -0.083,0.0836 -0.18168,0.12118 -0.21934,0.0835 -0.0377,-0.0377 0.0302,-0.10606 0.15087,-0.152 0.17434,-0.0664 0.18839,-0.0523 0.0685,0.0685 z m -0.97858,0.48929 c -0.083,0.0836 -0.18167,0.12118 -0.21934,0.0835 -0.0377,-0.0377 0.0302,-0.10606 0.15087,-0.15199 0.17433,-0.0664 0.18838,-0.0523 0.0685,0.0685 z m 37.70898,0.84922 c 0.0443,0.0718 0.0544,0.15669 0.0223,0.18876 -0.032,0.0321 -0.0909,-0.0266 -0.13073,-0.13046 -0.0827,-0.21555 -0.0122,-0.25346 0.1084,-0.0583 z m 0.72891,0.49092 c 0.72568,0.54865 0.82336,0.70344 0.14284,0.22637 -0.51403,-0.36036 -0.79387,-0.61086 -0.66993,-0.59971 0.0208,0.002 0.25798,0.16987 0.52709,0.37334 z m -40.91696,0.15874 c 0,0.0254 -0.0963,0.12173 -0.21407,0.21406 -0.19401,0.15216 -0.19833,0.14783 -0.0462,-0.0462 0.15979,-0.20375 0.26025,-0.26855 0.26025,-0.16788 z m 42.14788,0.84065 0.35928,0.39755 -0.39755,-0.35927 c -0.37057,-0.3349 -0.45378,-0.43583 -0.35928,-0.43583 0.021,0 0.19995,0.1789 0.39755,0.39755 z m -42.94298,-0.1529 c -0.12177,0.13456 -0.24892,0.24464 -0.28256,0.24464 -0.0337,0 0.0385,-0.11008 0.16024,-0.24464 0.12177,-0.13456 0.24892,-0.24465 0.28256,-0.24465 0.0337,0 -0.0385,0.11009 -0.16024,0.24465 z m 43.85271,0.91742 c 0.22823,0.23547 0.36287,0.42813 0.29922,0.42813 -0.0637,-10e-6 -0.26946,-0.19267 -0.45734,-0.42814 -0.43612,-0.54657 -0.37165,-0.54657 0.15812,1e-5 z m -45.00966,0.0917 c -0.5069,0.54008 -0.61673,0.63719 -0.61673,0.54534 0,-0.0196 0.26146,-0.28109 0.58104,-0.58103 l 0.58103,-0.54534 z m 46.11299,1.22323 c 0.33003,0.43998 0.33764,0.46348 0.0495,0.1529 -0.18725,-0.20183 -0.37645,-0.35626 -0.42045,-0.34318 -0.044,0.0131 -0.08,-0.0557 -0.08,-0.1529 0,-0.24901 0.0157,-0.23705 0.45095,0.34318 z m -46.9132,-0.27523 c -0.12177,0.13456 -0.24893,0.24465 -0.28257,0.24465 -0.0336,0 0.0385,-0.11009 0.16025,-0.24465 0.12177,-0.13455 0.24892,-0.24464 0.28256,-0.24464 0.0336,0 -0.0385,0.11009 -0.16024,0.24464 z m 47.45477,0.96814 c 0.0394,0.0637 0.0195,0.14809 -0.0442,0.18747 -0.0637,0.0394 -0.14808,0.0195 -0.18747,-0.0442 -0.0394,-0.0637 -0.0195,-0.14809 0.0443,-0.18748 0.0637,-0.0394 0.14809,-0.0195 0.18747,0.0443 z m 0.37342,0.62206 c 0.10437,0.20183 0.16225,0.36697 0.12861,0.36697 -0.0337,0 -0.14656,-0.16514 -0.25093,-0.36697 -0.10437,-0.20183 -0.16224,-0.36697 -0.12861,-0.36697 0.0337,0 0.14656,0.16514 0.25093,0.36697 z m 0.35186,0.6775 c 0.11804,0.30761 0.0832,0.38698 -0.061,0.139 -0.0714,-0.12278 -0.10405,-0.24901 -0.0726,-0.2805 0.0315,-0.0315 0.0916,0.0322 0.13354,0.1415 z m -50.11521,2.0136 c 0,0.4373 -0.0222,0.6162 -0.0493,0.39755 -0.0271,-0.21865 -0.0271,-0.57645 0,-0.7951 0.0271,-0.21865 0.0493,-0.0398 0.0493,0.39755 z m 50.52179,0 c 0,0.37003 -0.0229,0.5214 -0.051,0.33639 -0.028,-0.18502 -0.028,-0.48777 0,-0.67278 0.028,-0.18501 0.051,-0.0337 0.051,0.33639 z m -22.20314,0.45053 c -0.0883,0.0353 -0.19381,0.031 -0.23446,-0.01 -0.0406,-0.0406 0.0316,-0.0696 0.16055,-0.0642 0.1425,0.006 0.17149,0.0349 0.0739,0.0739 z m -5.92734,0.001 c -0.11902,0.031 -0.28415,0.029 -0.36697,-0.005 -0.0828,-0.0335 0.0146,-0.0589 0.21639,-0.0564 0.20184,0.002 0.2696,0.0299 0.15058,0.0609 z m 7.39521,0.12111 c -0.0883,0.0353 -0.19381,0.031 -0.23445,-0.01 -0.0406,-0.0406 0.0316,-0.0696 0.16055,-0.0642 0.14249,0.006 0.17148,0.0349 0.0739,0.0739 z m 20.6496,0.45258 c 0,0.13127 -0.36395,0.80941 -0.43441,0.80941 -0.0336,0 0.0298,-0.1789 0.14103,-0.39755 0.22706,-0.44646 0.29338,-0.53958 0.29338,-0.41186 z m -17.22457,0.0367 c -0.0883,0.0353 -0.1938,0.031 -0.23445,-0.01 -0.0406,-0.0406 0.0316,-0.0696 0.16055,-0.0643 0.1425,0.006 0.17149,0.0349 0.0739,0.0739 z m 16.66314,0.87724 c 0.0356,0.0575 -0.0851,0.2364 -0.26801,0.39755 l -0.33262,0.29301 0.27635,-0.31488 c 0.15199,-0.17319 0.23914,-0.35208 0.19367,-0.39755 -0.0454,-0.0455 -0.0492,-0.0827 -0.008,-0.0827 0.0409,0 0.10341,0.047 0.13894,0.10454 z m -49.28009,0.0258 c 0.0443,0.0717 0.30354,0.2919 0.57602,0.48929 0.27249,0.19738 0.43921,0.35888 0.37049,0.35888 -0.14068,0 -1.24338,-0.96574 -1.11163,-0.97356 0.0465,-0.003 0.1208,0.0537 0.16512,0.12539 z m 44.12498,0.37406 c -0.083,0.0836 -0.18168,0.12119 -0.21934,0.0835 -0.0377,-0.0377 0.0302,-0.10606 0.15086,-0.15199 0.17433,-0.0664 0.18839,-0.0523 0.0685,0.0685 z m -7.18937,-0.0166 c 0.0429,0.0693 -0.006,0.0898 -0.1151,0.0481 -0.21192,-0.0813 -0.25069,-0.169 -0.0747,-0.169 0.0633,0 0.14874,0.0544 0.18984,0.12092 z m 7.64604,0.18489 c 0.10521,0.12677 0.10984,0.18348 0.015,0.18348 -0.0755,0 -0.1373,-0.0583 -0.1373,-0.12954 0,-0.0713 -0.0636,-0.0903 -0.14123,-0.0423 -0.0875,0.0541 -0.10802,0.0336 -0.0539,-0.0539 0.11202,-0.18126 0.13446,-0.17827 0.31749,0.0423 z m 3.66968,0.3058 c -0.10092,0.0652 -0.23853,0.11858 -0.30581,0.11858 -0.0673,0 -0.0398,-0.0534 0.0612,-0.11858 0.10092,-0.0652 0.23853,-0.11857 0.30581,-0.11857 0.0673,0 0.0398,0.0534 -0.0612,0.11857 z m -18.8377,0.0686 c 0.37002,0.0936 1.35037,0.28223 2.17855,0.41923 2.31591,0.38308 3.14707,0.72394 3.77654,1.54875 l 0.34453,0.45145 -0.005,2.15043 c -0.003,1.18273 -0.0285,4.37975 -0.0575,7.10449 -0.0494,4.64693 -0.0359,5.06404 0.21764,6.72775 0.57745,3.7888 0.59348,3.99875 0.34118,4.46725 -0.14448,0.26829 -0.43143,0.52213 -0.78985,0.69874 -0.52182,0.25712 -0.7103,0.27605 -2.58125,0.25923 -1.96276,-0.0177 -2.39941,-0.0768 -4.10912,-0.55637 -0.82692,-0.23197 -1.6843,-0.74615 -2.05516,-1.23248 -0.65002,-0.85242 -0.67946,-1.11628 -0.77626,-6.95615 -0.0495,-2.98446 -0.0906,-7.21526 -0.0915,-9.40178 -0.002,-4.46142 0.0491,-4.78079 0.8767,-5.50742 0.37569,-0.32986 0.49188,-0.3631 1.23609,-0.35367 0.45178,0.006 1.12417,0.087 1.49419,0.18055 z m 16.16954,0.0149 c -0.0883,0.0353 -0.19381,0.031 -0.23446,-0.01 -0.0406,-0.0406 0.0316,-0.0696 0.16055,-0.0642 0.1425,0.006 0.17149,0.0349 0.0739,0.0739 z m -41.58974,0 c -0.0883,0.0353 -0.1938,0.031 -0.23445,-0.01 -0.0406,-0.0406 0.0316,-0.0696 0.16055,-0.0642 0.1425,0.006 0.17148,0.0349 0.0739,0.0739 z m 43.67687,0.11978 c -0.0841,0.0339 -0.22171,0.0339 -0.30581,0 -0.0841,-0.0339 -0.0153,-0.0617 0.1529,-0.0617 0.1682,0 0.237,0.0278 0.15291,0.0617 z m -1.59784,0.003 c -0.0883,0.0353 -0.19381,0.031 -0.23446,-0.01 -0.0406,-0.0406 0.0316,-0.0696 0.16055,-0.0643 0.1425,0.006 0.17149,0.0349 0.0739,0.0739 z m -42.56068,-0.003 c -0.0841,0.0339 -0.2217,0.0339 -0.3058,0 -0.0841,-0.0339 -0.0153,-0.0617 0.1529,-0.0617 0.1682,0 0.237,0.0278 0.1529,0.0617 z m 35.65682,2.18196 c -10e-4,0.2691 -0.0264,0.36479 -0.0557,0.21263 -0.0293,-0.15215 -0.0281,-0.37233 0.002,-0.48929 0.0306,-0.11695 0.0546,0.008 0.0532,0.27666 z m -28.98349,0.12232 c -0.002,0.20183 -0.0299,0.26959 -0.0609,0.15057 -0.031,-0.11902 -0.029,-0.28415 0.005,-0.36696 0.0335,-0.0828 0.0589,0.0146 0.0564,0.21639 z m 28.86117,1.34555 c -10e-4,0.26911 -0.0264,0.36479 -0.0557,0.21263 -0.0293,-0.15215 -0.0282,-0.37233 0.002,-0.48929 0.0306,-0.11694 0.0546,0.008 0.0532,0.27666 z m -28.74338,0.18348 c 0,0.23547 -0.0252,0.3318 -0.0559,0.21406 -0.0308,-0.11773 -0.0308,-0.31039 0,-0.42812 0.0308,-0.11774 0.0559,-0.0214 0.0559,0.21406 z m 28.60615,2.3853 c -2.8e-4,0.74005 -0.0204,1.02703 -0.0448,0.63772 -0.0244,-0.3893 -0.0241,-0.9948 4.7e-4,-1.34555 0.0246,-0.35075 0.0445,-0.0322 0.0443,0.70783 z m -28.5079,2.07948 c -9e-5,1.54738 -0.0176,2.16354 -0.039,1.36923 -0.0214,-0.79431 -0.0213,-2.06035 1.6e-4,-2.81342 0.0214,-0.75308 0.0389,-0.10319 0.0388,1.44419 z m 28.5084,1.89601 c 0,0.70641 -0.0202,0.99539 -0.0449,0.64219 -0.0247,-0.35321 -0.0247,-0.93118 0,-1.28439 0.0247,-0.35321 0.0449,-0.0642 0.0449,0.6422 z m -28.61159,2.69109 c 0,0.30275 -0.0238,0.4266 -0.053,0.27523 -0.0292,-0.15137 -0.0292,-0.39908 0,-0.55045 0.0292,-0.15137 0.053,-0.0275 0.053,0.27522 z m 28.74832,0.0612 c -10e-4,0.26911 -0.0264,0.3648 -0.0557,0.21264 -0.0293,-0.15216 -0.0282,-0.37234 0.002,-0.4893 0.0306,-0.11695 0.0546,0.008 0.0532,0.27666 z m -28.8657,1.65135 c 0,0.23547 -0.0252,0.3318 -0.0559,0.21407 -0.0308,-0.11774 -0.0308,-0.31039 0,-0.42813 0.0308,-0.11774 0.0559,-0.0214 0.0559,0.21406 z m 28.99049,0.12233 c 0,0.23547 -0.0252,0.3318 -0.0559,0.21406 -0.0308,-0.11773 -0.0308,-0.31039 0,-0.42813 0.0308,-0.11773 0.0559,-0.0214 0.0559,0.21407 z m -29.10375,1.1009 c 0,0.16819 -0.0278,0.237 -0.0617,0.1529 -0.0339,-0.0841 -0.0339,-0.22171 0,-0.3058 0.0339,-0.0841 0.0617,-0.0153 0.0617,0.1529 z m 29.23061,0.18349 c -0.002,0.20183 -0.0299,0.26959 -0.0609,0.15057 -0.031,-0.11901 -0.029,-0.28415 0.005,-0.36697 0.0335,-0.0828 0.0589,0.0146 0.0564,0.2164 z m 0.12685,1.03974 c 0,0.16819 -0.0277,0.237 -0.0617,0.1529 -0.0339,-0.0841 -0.0339,-0.22171 0,-0.30581 0.0339,-0.0841 0.0617,-0.0153 0.0617,0.15291 z m -29.47978,0 c 0,0.16819 -0.0277,0.237 -0.0617,0.1529 -0.0339,-0.0841 -0.0339,-0.22171 0,-0.30581 0.0339,-0.0841 0.0617,-0.0153 0.0617,0.15291 z m 29.6021,0.97858 c 0,0.16819 -0.0278,0.237 -0.0617,0.1529 -0.0339,-0.0841 -0.0339,-0.22171 0,-0.3058 0.0339,-0.0841 0.0617,-0.0153 0.0617,0.1529 z m -29.71477,-0.051 c -0.006,0.1425 -0.0349,0.17149 -0.0739,0.0739 -0.0353,-0.0883 -0.031,-0.19381 0.01,-0.23446 0.0406,-0.0406 0.0696,0.0316 0.0642,0.16055 z m 29.83709,0.90723 c 0,0.1682 -0.0277,0.237 -0.0617,0.1529 -0.0339,-0.0841 -0.0339,-0.22171 0,-0.30581 0.0339,-0.0841 0.0617,-0.0153 0.0617,0.15291 z m -29.95941,-0.051 c -0.006,0.1425 -0.0349,0.17149 -0.0739,0.0739 -0.0353,-0.0883 -0.031,-0.1938 0.01,-0.23444 0.0406,-0.0406 0.0695,0.0316 0.0642,0.16054 z m 30.09139,0.85626 c -0.006,0.1425 -0.0349,0.17148 -0.0739,0.0739 -0.0353,-0.0883 -0.031,-0.19381 0.01,-0.23446 0.0406,-0.0406 0.0696,0.0316 0.0642,0.16055 z m 0.12233,0.73394 c -0.006,0.1425 -0.0349,0.17148 -0.0739,0.0739 -0.0353,-0.0883 -0.031,-0.1938 0.01,-0.23445 0.0406,-0.0406 0.0696,0.0316 0.0642,0.16055 z m 0.12232,0.73393 c -0.006,0.1425 -0.0349,0.17149 -0.0739,0.0739 -0.0353,-0.0883 -0.031,-0.19381 0.01,-0.23445 0.0406,-0.0406 0.0696,0.0316 0.0643,0.16054 z m 0.11266,0.66258 c 0,0.1682 -0.0277,0.237 -0.0617,0.15291 -0.0339,-0.0841 -0.0339,-0.22171 0,-0.30581 0.0339,-0.0841 0.0617,-0.0153 0.0617,0.1529 z m 0.13199,0.56065 c -0.006,0.1425 -0.0349,0.17149 -0.0739,0.0739 -0.0353,-0.0883 -0.031,-0.1938 0.01,-0.23445 0.0406,-0.0406 0.0696,0.0316 0.0643,0.16055 z m 0.13198,0.53304 c 0,0.0633 -0.0544,0.14874 -0.12093,0.18984 -0.0693,0.0429 -0.0898,-0.006 -0.0481,-0.1151 0.0813,-0.21192 0.169,-0.25069 0.169,-0.0747 z m 0.23499,1.05716 c -0.006,0.1425 -0.0349,0.17148 -0.0739,0.0739 -0.0353,-0.0883 -0.031,-0.19381 0.01,-0.23445 0.0406,-0.0406 0.0696,0.0316 0.0643,0.16055 z m 0.24464,0.85625 c -0.006,0.14251 -0.0349,0.17149 -0.0739,0.0739 -0.0353,-0.0883 -0.031,-0.1938 0.01,-0.23445 0.0406,-0.0406 0.0695,0.0316 0.0642,0.16054 z m -11.54984,0.42742 c 5.27657,0.1914 9.99925,0.77738 11.41367,1.41617 0.32012,0.14458 0.44207,0.15169 0.58384,0.034 0.14868,-0.1234 0.16477,-0.11112 0.0944,0.0721 -0.0527,0.13744 -0.0375,0.19162 0.0404,0.14345 0.18913,-0.11688 0.40261,0.44007 0.26378,0.68815 -0.36028,0.64378 -2.84893,1.23927 -6.95285,1.6637 -2.8584,0.29561 -10.8872,0.55073 -10.88687,0.34593 8e-5,-0.0505 -0.10292,-0.0917 -0.22889,-0.0917 -0.63589,0 -3.59909,-1.19468 -4.19394,-1.69089 -0.54849,-0.45752 -0.67596,-0.58503 -0.87432,-0.87452 -0.27776,-0.40539 -0.26866,-1.16515 0.0174,-1.4512 0.36416,-0.36415 4.80582,-0.46986 10.72328,-0.25521 z m -21.52881,2.48303 c 0.24945,0.24247 0.2854,0.31394 0.11226,0.22317 -0.26634,-0.13965 -0.61,-0.49803 -0.52724,-0.54984 0.0264,-0.0165 0.21315,0.13047 0.41498,0.32667 z m 0.85626,0.44324 c 0.16132,0.0693 0.18215,0.10742 0.0612,0.11185 -0.10091,0.004 -0.26605,-0.0466 -0.36697,-0.11185 -0.2236,-0.1445 -0.0305,-0.1445 0.30581,0 z m 0.94036,0.32821 c -0.0883,0.0353 -0.19381,0.031 -0.23445,-0.01 -0.0406,-0.0406 0.0316,-0.0696 0.16054,-0.0642 0.14251,0.006 0.17149,0.0349 0.0739,0.0739 z m 1.87307,0.2834 c 0.23343,0.10031 0.23203,0.10553 -0.0306,0.11373 -0.15138,0.005 -0.27523,-0.0464 -0.27523,-0.11373 0,-0.0673 0.0138,-0.11845 0.0306,-0.11372 0.0168,0.005 0.14067,0.0559 0.27523,0.11372 z m -0.6422,-0.0413 c -0.0841,0.0339 -0.22171,0.0339 -0.3058,0 -0.0841,-0.0339 -0.0153,-0.0617 0.1529,-0.0617 0.16819,0 0.237,0.0277 0.1529,0.0617 z m 1.52671,0.24841 c -0.11902,0.031 -0.28416,0.029 -0.36697,-0.005 -0.0828,-0.0335 0.0146,-0.0589 0.21639,-0.0564 0.20183,0.002 0.26959,0.0299 0.15058,0.0609 z m 0.97858,0.12232 c -0.11902,0.031 -0.28415,0.029 -0.36697,-0.005 -0.0828,-0.0335 0.0146,-0.0589 0.21639,-0.0564 0.20184,0.002 0.2696,0.0299 0.15058,0.0609 z m 1.22556,0.12187 c -0.11774,0.0308 -0.3104,0.0308 -0.42813,0 -0.11774,-0.0308 -0.0214,-0.0559 0.21406,-0.0559 0.23547,0 0.3318,0.0252 0.21407,0.0559 z m 1.28296,0.12452 c -0.15216,0.0293 -0.37234,0.0282 -0.4893,-0.002 -0.11694,-0.0306 0.008,-0.0546 0.27666,-0.0532 0.26911,10e-4 0.3648,0.0264 0.21264,0.0557 z m 2.08091,0.1243 c -0.21865,0.0271 -0.57645,0.0271 -0.7951,0 -0.21865,-0.0271 -0.0398,-0.0493 0.39755,-0.0493 0.43731,0 0.6162,0.0222 0.39755,0.0493 z m 2.44322,0.12356 c -0.28771,0.0258 -0.72807,0.0255 -0.97858,-9.3e-4 -0.25051,-0.0263 -0.0151,-0.0474 0.52311,-0.047 0.53821,4.5e-4 0.74318,0.022 0.45547,0.0478 z"
       id="path58" /><path
       style="fill:#313131;stroke-width:0.462322"
       d="m 264.70909,211.67997 c 0.26911,0.0253 1.29935,0.1108 2.28943,0.19004 0.99008,0.0792 1.77738,0.18089 1.74956,0.2259 -0.0278,0.045 0.0992,0.0598 0.28239,0.033 0.99317,-0.14576 7.94681,1.61779 8.24063,2.08996 0.0468,0.0752 0.1249,0.0969 0.17355,0.0483 0.0487,-0.0487 0.19505,0.008 0.32531,0.12586 0.13026,0.11789 0.26251,0.19233 0.2939,0.16545 0.0314,-0.0269 0.37866,0.10481 0.77172,0.29268 0.52384,0.25037 0.69805,0.39406 0.65248,0.53818 -0.0503,0.15895 -0.0389,0.16397 0.0592,0.0262 0.0996,-0.13984 0.26628,-0.0894 0.92896,0.28122 0.44419,0.24841 0.80762,0.50725 0.80762,0.5752 0,0.068 0.0554,0.0893 0.12319,0.0474 0.0677,-0.0419 0.15621,0.01 0.19657,0.11511 0.0404,0.10518 0.15179,0.19123 0.24762,0.19123 0.0958,0 0.20384,0.0771 0.24002,0.17144 0.0362,0.0943 0.17207,0.19922 0.30197,0.23319 0.1299,0.034 0.23702,0.16324 0.23805,0.28728 10e-4,0.15364 0.032,0.178 0.0966,0.0764 0.065,-0.10237 0.4187,0.15632 1.12882,0.82568 0.56875,0.53611 0.96172,0.97475 0.87325,0.97475 -0.12286,0 -0.11751,0.0433 0.0226,0.18349 0.10092,0.10091 0.22078,0.18348 0.26636,0.18348 0.1436,0 0.60872,0.6597 0.57344,0.81333 -0.0185,0.0807 0.0313,0.18698 0.11075,0.23609 0.0907,0.056 0.11197,0.0367 0.0572,-0.0519 -0.048,-0.0777 -0.0612,-0.14122 -0.0294,-0.14122 0.10183,0 0.66404,1.07697 0.90945,1.74214 0.13855,0.37552 0.24675,1.00877 0.26002,1.52178 0.0447,1.72996 -0.90382,2.81152 -2.6714,3.046 -0.69914,0.0927 -2.27658,-0.23032 -2.62937,-0.53849 -0.18317,-0.16 -0.21524,-0.16495 -0.14427,-0.0223 0.0701,0.14091 0.0537,0.13817 -0.0707,-0.0118 -0.0891,-0.1074 -0.25808,-0.18111 -0.37555,-0.1638 -0.11747,0.0173 -0.24512,-0.0196 -0.28368,-0.0819 -0.0386,-0.0624 -0.12985,-0.0765 -0.20287,-0.0313 -0.0793,0.049 -0.0976,0.0251 -0.0455,-0.0592 0.048,-0.0777 0.0258,-0.14122 -0.0495,-0.14122 -0.0752,0 -0.10274,-0.0551 -0.0612,-0.12232 0.0416,-0.0673 0.0241,-0.12233 -0.0389,-0.12233 -0.15587,0 -0.5547,-0.9794 -0.82191,-2.01832 -0.30361,-1.18049 -0.9423,-2.41733 -1.55823,-3.01754 -0.55764,-0.54341 -1.71003,-1.44724 -1.84525,-1.44724 -0.0457,0 -0.28838,-0.12682 -0.53933,-0.28183 -1.4297,-0.88308 -4.54353,-1.89664 -7.36752,-2.39815 -2.8072,-0.49853 -7.16093,-0.62819 -10.64208,-0.31693 -2.79332,0.24976 -4.6402,0.2417 -5.19456,-0.0227 -0.58763,-0.28021 -0.60043,-0.81242 -0.0354,-1.47153 0.55512,-0.64756 1.31546,-1.3562 1.71318,-1.5967 0.18501,-0.11188 0.33639,-0.24659 0.33639,-0.29936 0,-0.0528 0.0722,-0.096 0.16042,-0.096 0.0882,0 0.27456,-0.10634 0.41406,-0.2363 0.18288,-0.17038 0.57322,-0.27445 1.3992,-0.37301 1.12557,-0.13431 7.40366,-0.26748 8.36259,-0.17738 z m 20.94777,9.79727 c 0.0841,0.0339 0.22171,0.0339 0.3058,0 0.0841,-0.0339 0.0153,-0.0617 -0.1529,-0.0617 -0.16819,0 -0.237,0.0277 -0.1529,0.0617 z m 0.0306,4.12622 c 0,0.0909 0.49047,0.17112 0.54151,0.0885 0.0289,-0.0467 -0.0812,-0.096 -0.24452,-0.10947 -0.16335,-0.0135 -0.29699,-0.004 -0.29699,0.0209 z M 254.7627,212.06094 c -0.0883,0.0353 -0.1938,0.031 -0.23445,-0.01 -0.0406,-0.0406 0.0316,-0.0695 0.16055,-0.0642 0.1425,0.006 0.17148,0.0349 0.0739,0.0739 z m 9.79204,4.65121 c -0.15216,0.0293 -0.37234,0.0282 -0.48929,-0.002 -0.11695,-0.0306 0.008,-0.0545 0.27665,-0.0532 0.26911,0.001 0.3648,0.0264 0.21264,0.0557 z m -5.19729,-0.002 c -0.11773,0.0308 -0.31039,0.0308 -0.42813,0 -0.11774,-0.0308 -0.0214,-0.0559 0.21407,-0.0559 0.23547,0 0.3318,0.0252 0.21406,0.0559 z m 6.78127,0.12156 c -0.0883,0.0353 -0.19381,0.031 -0.23445,-0.01 -0.0406,-0.0406 0.0316,-0.0696 0.16054,-0.0643 0.1425,0.006 0.17149,0.0349 0.0739,0.0739 z m -8.61844,0.001 c -0.11902,0.031 -0.28415,0.029 -0.36697,-0.005 -0.0828,-0.0335 0.0146,-0.0589 0.2164,-0.0564 0.20183,0.002 0.26958,0.0299 0.15057,0.0609 z m -16.1137,-0.0367 c 0,0.0265 -0.0854,0.0809 -0.18983,0.12092 -0.10886,0.0418 -0.15796,0.0213 -0.1151,-0.0481 0.0718,-0.11623 0.30493,-0.17192 0.30493,-0.0729 z m 25.89952,0.15902 c -0.11902,0.031 -0.28415,0.029 -0.36697,-0.005 -0.0828,-0.0335 0.0146,-0.0589 0.2164,-0.0564 0.20183,0.002 0.26959,0.0299 0.15057,0.0609 z m -10.83088,-0.001 c -0.0883,0.0353 -0.19381,0.031 -0.23445,-0.01 -0.0406,-0.0406 0.0316,-0.0696 0.16055,-0.0643 0.14249,0.006 0.17148,0.0349 0.0739,0.0739 z m 11.75063,0.11977 c -0.0841,0.0339 -0.22171,0.0339 -0.30581,0 -0.0841,-0.0339 -0.0153,-0.0617 0.1529,-0.0617 0.1682,0 0.23701,0.0277 0.15291,0.0617 z m -14.07476,0.2472 c -0.0883,0.0353 -0.19381,0.031 -0.23446,-0.01 -0.0406,-0.0406 0.0316,-0.0696 0.16056,-0.0642 0.14249,0.006 0.17148,0.0349 0.0739,0.0739 z m 15.90195,0.12232 c -0.0883,0.0353 -0.1938,0.031 -0.23445,-0.01 -0.0406,-0.0406 0.0316,-0.0696 0.16055,-0.0642 0.1425,0.006 0.17149,0.0349 0.0739,0.0739 z m -17.00286,0.12233 c -0.0883,0.0353 -0.1938,0.031 -0.23445,-0.01 -0.0406,-0.0406 0.0316,-0.0695 0.16055,-0.0642 0.1425,0.006 0.17149,0.0349 0.0739,0.0739 z m -1.1009,0.24464 c -0.0883,0.0353 -0.19381,0.031 -0.23445,-0.01 -0.0406,-0.0406 0.0316,-0.0696 0.16055,-0.0642 0.14249,0.006 0.17148,0.0349 0.0739,0.0739 z m -12.07173,0.16109 c -0.12177,0.13455 -0.24892,0.24464 -0.28256,0.24464 -0.0337,0 0.0385,-0.11009 0.16024,-0.24464 0.12177,-0.13456 0.24892,-0.24465 0.28256,-0.24465 0.0337,0 -0.0385,0.1101 -0.16024,0.24465 z m 34.6785,0.85625 c 0.11025,0.0712 0.12534,0.11933 0.0378,0.12045 -0.0801,9.3e-4 -0.1797,-0.0532 -0.22129,-0.12045 -0.0939,-0.15186 -0.0515,-0.15186 0.18349,0 z m 2.08607,1.4373 0.42155,0.45871 -0.45871,-0.42155 c -0.2523,-0.23185 -0.45871,-0.43827 -0.45871,-0.45871 0,-0.0934 0.10351,-0.005 0.49587,0.42155 z m -29.66985,-0.0918 c -0.12177,0.13456 -0.24892,0.24465 -0.28256,0.24465 -0.0337,0 0.0385,-0.11009 0.16024,-0.24465 0.12177,-0.13455 0.24892,-0.24464 0.28256,-0.24464 0.0337,0 -0.0385,0.1101 -0.16024,0.24464 z m -8.95908,0.0112 c -0.0835,0.10711 -0.11271,0.23387 -0.0649,0.28169 0.0478,0.0478 -0.0101,0.0497 -0.12866,0.004 -0.11859,-0.0455 -0.19947,-0.0915 -0.17976,-0.10224 0.0197,-0.0107 0.14595,-0.10025 0.28051,-0.19895 0.22045,-0.16171 0.22963,-0.1602 0.0928,0.0153 z m 39.34663,2.50656 c -0.006,0.1425 -0.0349,0.17149 -0.0739,0.0739 -0.0353,-0.0883 -0.031,-0.1938 0.01,-0.23445 0.0406,-0.0406 0.0696,0.0316 0.0643,0.16055 z m -30.94766,0.97858 c -0.006,0.1425 -0.0349,0.17149 -0.0739,0.0739 -0.0353,-0.0883 -0.031,-0.19381 0.01,-0.23445 0.0406,-0.0406 0.0696,0.0316 0.0643,0.16054 z m 0.10813,0.60142 c -0.002,0.20183 -0.0299,0.2696 -0.0609,0.15058 -0.031,-0.11902 -0.029,-0.28415 0.005,-0.36697 0.0335,-0.0828 0.0589,0.0146 0.0564,0.21639 z m 19.04504,-0.0512 c 1.52659,0.13752 3.22068,0.35639 3.73084,0.48201 0.23548,0.058 0.84097,0.19659 1.34555,0.30801 2.00844,0.4435 3.94956,1.25532 4.81185,2.01241 0.67607,0.5936 0.80554,1.00016 0.68205,2.14172 -0.2022,1.86923 -0.27072,7.44992 -0.12132,9.88172 0.21887,3.56266 0.76558,7.96029 1.24817,10.04009 0.11217,0.48342 0.10648,0.61729 -0.0304,0.71489 -0.1325,0.0945 -0.12479,0.10618 0.0362,0.0549 0.16142,-0.0515 0.22247,0.0429 0.28941,0.44717 0.0467,0.28181 0.2721,1.08662 0.50097,1.78847 0.25138,0.77081 0.37187,1.32035 0.30433,1.38789 -0.0675,0.0676 -0.27426,0.0384 -0.52207,-0.0736 -2.11894,-0.95764 -11.37609,-1.68872 -18.80346,-1.48498 -2.8094,0.0771 -3.12467,0.1069 -3.3333,0.31553 -0.29183,0.29183 -0.30386,1.0474 -0.0232,1.45702 0.19836,0.28949 0.32583,0.41699 0.87432,0.87452 0.55015,0.45892 2.76444,1.38278 4.03017,1.6815 1.66962,0.39404 -8.91407,-0.17534 -11.44723,-0.61584 -0.38393,-0.0668 -0.91823,-0.14836 -1.18734,-0.18134 -1.12307,-0.13763 -2.92953,-0.71807 -2.81442,-0.90432 0.0412,-0.0666 -0.002,-0.0917 -0.0954,-0.0558 -0.0936,0.0359 -0.23865,-0.0171 -0.32227,-0.11785 -0.28068,-0.33821 -0.0385,-0.6202 0.81603,-0.95015 0.76437,-0.29514 1.09783,-0.37758 2.87474,-0.71073 0.75305,-0.14119 3.66547,-0.44328 5.41279,-0.56144 0.67277,-0.0455 1.36084,-0.0996 1.52903,-0.12014 0.1682,-0.0206 0.34253,-0.0412 0.38741,-0.0459 0.0802,-0.008 0.12517,-0.18817 0.5982,-2.39373 0.95971,-4.47473 1.43766,-11.18296 1.22015,-17.12518 -0.12093,-3.30359 -0.28406,-6.10479 -0.43875,-7.53411 l -0.074,-0.68403 1.49685,-0.0805 c 1.91862,-0.10316 5.60604,-0.076 7.02412,0.0518 z m -1.81286,2.55597 c -0.82759,0.72663 -0.87843,1.046 -0.8767,5.50741 9.2e-4,2.18652 0.042,6.41732 0.0915,9.40179 0.0968,5.83986 0.12624,6.10372 0.77626,6.95615 0.37085,0.48633 1.22824,1.0005 2.05516,1.23247 1.70971,0.47961 2.14636,0.53874 4.10912,0.55638 1.87094,0.0168 2.05942,-0.002 2.58125,-0.25923 0.35842,-0.17661 0.64537,-0.43046 0.78985,-0.69875 0.2523,-0.4685 0.23626,-0.67844 -0.34119,-4.46724 -0.25357,-1.66372 -0.26706,-2.08082 -0.21763,-6.72775 0.029,-2.72474 0.0549,-5.92176 0.0575,-7.1045 l 0.005,-2.15042 -0.34454,-0.45146 c -0.62947,-0.82481 -1.46062,-1.16567 -3.77653,-1.54875 -0.82818,-0.137 -1.80853,-0.32565 -2.17855,-0.41923 -0.37003,-0.0936 -1.04242,-0.17483 -1.4942,-0.18055 -0.74421,-0.009 -0.8604,0.0238 -1.23609,0.35368 z m -9.35674,-2.11536 c -0.0883,0.0353 -0.1938,0.031 -0.23445,-0.01 -0.0406,-0.0406 0.0316,-0.0696 0.16055,-0.0642 0.1425,0.006 0.17148,0.0349 0.0739,0.0739 z m -17.44889,0.65851 c 0.0443,0.0718 0.0544,0.1567 0.0223,0.18876 -0.032,0.0321 -0.0909,-0.0266 -0.13074,-0.13046 -0.0827,-0.21555 -0.0122,-0.25346 0.10841,-0.0583 z m 5.98791,0.47975 c 0.0429,0.0693 -0.006,0.0898 -0.1151,0.0481 -0.21192,-0.0813 -0.25069,-0.169 -0.0747,-0.169 0.0633,0 0.14873,0.0544 0.18983,0.12092 z m 6.77959,0.16934 c -0.12588,0.11263 -0.84606,0.44358 -0.84606,0.3888 0,-0.0704 0.67813,-0.43441 0.80941,-0.43441 0.0482,0 0.0647,0.0205 0.0367,0.0456 z m -1.02955,0.566 c -0.0416,0.0673 -0.13064,0.12232 -0.19792,0.12232 -0.0673,0 -0.0883,-0.055 -0.0467,-0.12232 0.0416,-0.0673 0.13065,-0.12232 0.19793,-0.12232 0.0673,0 0.0883,0.055 0.0467,0.12232 z m -0.7951,0.55045 c -0.15801,0.1682 -0.31481,0.30581 -0.34845,0.30581 -0.0337,0 0.0681,-0.13761 0.22613,-0.30581 0.15801,-0.16819 0.31481,-0.30581 0.34845,-0.30581 0.0337,0 -0.0681,0.13762 -0.22613,0.30581 z m -0.43599,3.08338 c 0.0664,0.17433 0.0523,0.18838 -0.0685,0.0685 -0.0836,-0.083 -0.12118,-0.18168 -0.0835,-0.21935 0.0377,-0.0377 0.10606,0.0302 0.152,0.15087 z m 0.0452,1.80953 c -0.002,0.20183 -0.0299,0.26959 -0.0609,0.15058 -0.031,-0.11902 -0.029,-0.28415 0.005,-0.36696 0.0335,-0.0828 0.0589,0.0146 0.0564,0.21639 z m -0.007,6.23846 c -10e-4,0.26911 -0.0264,0.3648 -0.0557,0.21264 -0.0293,-0.15216 -0.0282,-0.37234 0.002,-0.48929 0.0306,-0.11695 0.0546,0.008 0.0532,0.27665 z"
       id="path57" /><path
       style="fill:#181918;stroke-width:0.462322"
       d="m 255.10675,212.08208 c 0,0.0542 -0.15137,0.17662 -0.33639,0.27198 -0.18501,0.0954 -0.3639,0.2013 -0.39754,0.23544 -0.0337,0.0341 -0.25382,0.20554 -0.4893,0.38092 -1.12797,0.84013 -1.95716,1.83677 -1.95716,2.35243 0,0.33883 0.0672,0.43328 0.43228,0.60736 0.55436,0.26435 2.40124,0.27241 5.19457,0.0226 3.48114,-0.31125 7.83487,-0.18159 10.64207,0.31693 2.82399,0.50151 5.93782,1.51507 7.36752,2.39816 0.25095,0.155 0.49366,0.28183 0.53934,0.28183 0.0457,0 0.36328,0.21233 0.70579,0.47184 1.56767,1.18784 2.18434,2.11662 2.73159,4.11414 0.31237,1.14016 0.57859,1.77049 0.81337,1.92583 0.0747,0.0494 0.084,0.0907 0.0207,0.0917 -0.0633,9.3e-4 -0.008,0.0862 0.12233,0.18925 0.19778,0.15608 0.15572,0.15352 -0.25185,-0.0154 -0.26911,-0.11149 -1.09479,-0.41942 -1.83485,-0.68427 -0.74005,-0.26486 -1.37935,-0.51942 -1.42067,-0.5657 -0.0413,-0.0463 0.0245,-0.46945 0.14624,-0.94039 0.29481,-1.14034 0.29524,-2.03268 10e-4,-2.60422 -1.00658,-1.95691 -5.36044,-3.57393 -11.14257,-4.13834 -3.7326,-0.36436 -9.52941,-0.10084 -12.29343,0.55885 -0.26912,0.0642 -0.79205,0.18134 -1.16207,0.26026 -0.79628,0.16982 -0.94861,0.21699 -2.3853,0.73858 -0.60549,0.21982 -1.30623,0.52682 -1.55718,0.68221 -0.25095,0.15539 -0.49128,0.28253 -0.53407,0.28253 -0.23305,0 -1.30677,0.94262 -1.63058,1.43149 -0.43487,0.65653 -0.48471,1.32366 -0.19004,2.544 0.22282,0.92282 0.22687,1.28439 0.0144,1.28439 -0.0917,0 -0.54578,0.15634 -1.00916,0.34742 -0.46337,0.19108 -0.87002,0.35327 -0.90366,0.36043 -0.0337,0.007 -0.28134,0.10646 -0.55045,0.22068 -0.26912,0.11421 -0.65443,0.20889 -0.85626,0.2104 -0.20184,0.001 -0.28999,0.0284 -0.1959,0.0598 0.25015,0.0834 -1.10622,0.60464 -2.11623,0.81327 -1.87979,0.38828 -3.16591,-0.10148 -3.80301,-1.4482 -0.216,-0.45659 -0.30681,-0.85528 -0.30681,-1.34708 0,-0.73502 0.21846,-1.81605 0.35053,-1.73452 0.0427,0.0264 0.0859,-0.0707 0.0961,-0.21558 0.0102,-0.14492 0.16813,-0.52832 0.35102,-0.85199 0.24182,-0.42797 0.38591,-0.56803 0.52823,-0.51341 0.10763,0.0413 0.15657,0.036 0.10875,-0.0118 -0.0478,-0.0478 -0.0186,-0.17458 0.0649,-0.28169 0.13728,-0.17607 0.12861,-0.17714 -0.0905,-0.0112 -0.37218,0.28183 0.49784,-0.78882 1.29409,-1.59253 0.39019,-0.39384 1.00122,-0.94113 1.35786,-1.21621 0.35663,-0.27508 0.80525,-0.62261 0.99693,-0.77229 0.19168,-0.14967 0.49442,-0.35593 0.67277,-0.45834 0.17835,-0.10241 0.67244,-0.39209 1.09797,-0.64374 0.42554,-0.25164 0.83312,-0.42081 0.90574,-0.37593 0.0785,0.0485 0.0967,0.0244 0.0448,-0.0596 -0.0505,-0.0816 -0.0134,-0.14122 0.088,-0.14122 0.0964,0 0.43119,-0.14302 0.74394,-0.31783 0.33539,-0.18745 0.65379,-0.28515 0.7762,-0.23818 0.11415,0.0438 0.1668,0.0389 0.11701,-0.0109 -0.11688,-0.11687 1.01423,-0.54917 1.17572,-0.44936 0.0672,0.0415 0.0856,0.0164 0.041,-0.0558 -0.0693,-0.11219 0.34739,-0.28252 0.83843,-0.34268 0.0673,-0.008 0.28746,-0.0829 0.48929,-0.16595 0.566,-0.23284 3.15775,-0.82147 4.5871,-1.04181 0.70642,-0.1089 1.43577,-0.22255 1.62078,-0.25257 0.18501,-0.03 0.33639,-0.0102 0.33639,0.044 z m 29.86236,7.3264 c 0.15215,0.19401 0.14782,0.19834 -0.0462,0.0462 -0.11774,-0.0923 -0.21407,-0.18867 -0.21407,-0.21407 0,-0.10067 0.10045,-0.0359 0.26025,0.16788 z m -27.85692,5.49005 c 0.14174,1.12235 0.31938,4.14449 0.44483,7.56791 0.21772,5.94149 -0.26019,12.64994 -1.22001,17.12518 -0.41429,1.93165 -0.51611,2.38515 -0.53704,2.39179 -0.0112,0.004 -0.35071,0.0334 -0.75438,0.0664 -2.96926,0.24228 -5.12892,0.44585 -5.77975,0.54481 -2.01124,0.30582 -2.33884,0.367 -2.96632,0.55397 -0.37003,0.11026 -0.82927,0.28112 -1.02053,0.37969 -0.19127,0.0986 -0.374,0.15297 -0.40607,0.12091 -0.0321,-0.0321 0.0504,-0.32512 0.18319,-0.65122 0.31541,-0.77445 0.41729,-1.04981 0.45531,-1.2307 0.2115,-1.00613 0.47763,-1.97166 0.53387,-1.9369 0.0389,0.024 0.0752,-0.1024 0.0806,-0.28099 0.005,-0.17859 0.18126,-1.31552 0.39077,-2.52652 0.79352,-4.58658 1.06412,-8.32178 0.95945,-13.24364 -0.0425,-2.0003 -0.12785,-4.10478 -0.18958,-4.67664 -0.12417,-1.15047 -0.0312,-1.4333 0.68638,-2.08876 1.182,-1.07962 5.05419,-2.32102 8.19073,-2.62589 l 0.87337,-0.0849 z"
       id="path56" /></g></svg>
